<svg xmlns="http://www.w3.org/2000/svg" viewBox="0 0 750 500"><g id="freepik--background-complete--inject-25"><path d="M564.68,227.22a44.74,44.74,0,0,1,11.23-3.91l3.05-10.6,18.21,1L599,224.62a45.06,45.06,0,0,1,10.72,5.17l9.64-5.34,12.14,13.61-6.4,9A44.24,44.24,0,0,1,629,258.27l10.6,3-1,18.22-10.88,1.82a44.4,44.4,0,0,1-5.16,10.71l5.34,9.65-13.62,12.14-9-6.4a44.9,44.9,0,0,1-11.23,3.92L591,322l-18.21-1L571,310.05a44.5,44.5,0,0,1-10.72-5.17l-9.64,5.34-12.15-13.61,6.4-9A44.81,44.81,0,0,1,541,276.4l-10.6-3,1-18.22,10.88-1.82a44.58,44.58,0,0,1,5.16-10.71L542.09,233l13.62-12.15,9,6.4Zm7.89,25a19.57,19.57,0,1,0,27.63,1.58A19.57,19.57,0,0,0,572.57,252.18Z" style="fill:#f5f5f5"></path><path d="M410.51,206.15a44.6,44.6,0,0,1,11.23-3.91l3-10.6,18.22,1,1.82,10.88a44.43,44.43,0,0,1,10.71,5.17l9.65-5.34L477.32,217l-6.4,9a44.83,44.83,0,0,1,3.92,11.24l10.59,3-1,18.22-10.88,1.82A44.43,44.43,0,0,1,468.35,271l5.34,9.64-13.61,12.15-9-6.4a44.81,44.81,0,0,1-11.24,3.91l-3,10.6-18.22-1L416.79,289a45,45,0,0,1-10.71-5.17l-9.64,5.34-12.15-13.61,6.4-9a44.6,44.6,0,0,1-3.91-11.23l-10.6-3,1-18.22,10.87-1.82a44.81,44.81,0,0,1,5.17-10.71l-5.34-9.65,13.61-12.14,9,6.4Zm7.89,25A19.57,19.57,0,1,0,446,232.68,19.56,19.56,0,0,0,418.4,231.11Z" style="fill:#f5f5f5"></path><path d="M191.61,275.26a44.6,44.6,0,0,1,11.23-3.91l3-10.6,18.22,1,1.82,10.87a44.81,44.81,0,0,1,10.71,5.17l9.65-5.34,12.14,13.61-6.4,9a44.63,44.63,0,0,1,3.92,11.23l10.6,3-1,18.22-10.88,1.82a44.43,44.43,0,0,1-5.17,10.71l5.34,9.65-13.61,12.14-9-6.4A44.83,44.83,0,0,1,221,359.41l-3,10.6-18.21-1-1.83-10.88a44.61,44.61,0,0,1-10.71-5.17l-9.64,5.34-12.15-13.61,6.4-9a44.81,44.81,0,0,1-3.91-11.24l-10.6-3,1-18.21,10.87-1.83a45,45,0,0,1,5.17-10.71L169,281l13.61-12.15,9,6.4Zm7.89,25a19.57,19.57,0,1,0,27.63,1.58A19.57,19.57,0,0,0,199.5,300.22Z" style="fill:#f5f5f5"></path><path d="M645.55,181.82a23.52,23.52,0,0,1,5.9-2.06l1.6-5.57,9.58.54,1,5.72a23.76,23.76,0,0,1,5.63,2.72l5.07-2.81,6.39,7.16-3.37,4.72a23.26,23.26,0,0,1,2.06,5.9l5.57,1.61-.54,9.57-5.72,1a23.2,23.2,0,0,1-2.72,5.63l2.81,5.07-7.16,6.39L666.89,224a23.49,23.49,0,0,1-5.9,2.05l-1.6,5.58-9.58-.55-1-5.72a23.54,23.54,0,0,1-5.63-2.71l-5.07,2.8-6.39-7.16,3.37-4.71a23.2,23.2,0,0,1-2.06-5.91l-5.58-1.6.55-9.58,5.72-1a23.38,23.38,0,0,1,2.72-5.63l-2.81-5.07,7.16-6.39,4.72,3.37Zm4.14,13.12a10.29,10.29,0,1,0,14.53.83A10.29,10.29,0,0,0,649.69,194.94Z" style="fill:#ebebeb"></path><path d="M333.19,297a34.46,34.46,0,0,1,8.68-3l2.35-8.18,14.06.8,1.41,8.4a33.9,33.9,0,0,1,8.27,4l7.45-4.13,9.38,10.52-4.94,6.93a34.62,34.62,0,0,1,3,8.67l8.19,2.35-.81,14.07-8.4,1.41a34.07,34.07,0,0,1-4,8.27l4.13,7.45-10.51,9.38-6.93-5a34.46,34.46,0,0,1-8.68,3l-2.35,8.18-14.07-.8-1.4-8.4a34.64,34.64,0,0,1-8.27-4L322.33,361,313,350.53l4.94-6.93a34.36,34.36,0,0,1-3-8.67l-8.19-2.35.8-14.07,8.4-1.41a34.83,34.83,0,0,1,4-8.27l-4.12-7.45L326.26,292l6.93,4.95Zm6.1,19.27a15.11,15.11,0,1,0,21.34,1.22A15.11,15.11,0,0,0,339.29,316.22Z" style="fill:#ebebeb"></path><path d="M141.15,362.94a23.73,23.73,0,0,1,5.91-2.06l1.6-5.57,9.58.55,1,5.72a23.72,23.72,0,0,1,5.63,2.71l5.07-2.81,6.39,7.16-3.37,4.72a23.59,23.59,0,0,1,2.06,5.91l5.57,1.6-.54,9.58-5.72.95a23.64,23.64,0,0,1-2.72,5.64l2.81,5.07-7.16,6.38-4.72-3.36a23.66,23.66,0,0,1-5.9,2.06l-1.6,5.57-9.58-.55-1-5.71a24,24,0,0,1-5.63-2.72l-5.07,2.81-6.39-7.16,3.37-4.72a23.2,23.2,0,0,1-2.06-5.91l-5.58-1.6.55-9.58,5.72-.95a23.27,23.27,0,0,1,2.72-5.64L129.28,366l7.16-6.38,4.71,3.36Zm4.15,13.13a10.29,10.29,0,1,0,14.53.82A10.3,10.3,0,0,0,145.3,376.07Z" style="fill:#ebebeb"></path><path d="M57.54,345.29a13.66,13.66,0,0,1,3.39-1.18l.92-3.2,5.5.31.55,3.29a13.61,13.61,0,0,1,3.24,1.56l2.91-1.62,3.66,4.11-1.93,2.71a13.2,13.2,0,0,1,1.18,3.4l3.2.91-.31,5.5-3.28.55A13.61,13.61,0,0,1,75,364.87l1.61,2.91-4.11,3.67-2.71-1.94a13.29,13.29,0,0,1-3.39,1.19l-.92,3.2-5.5-.32-.55-3.28a13.61,13.61,0,0,1-3.24-1.56l-2.91,1.61-3.66-4.11,1.93-2.71a13,13,0,0,1-1.18-3.39l-3.2-.92.31-5.5,3.28-.55a13.37,13.37,0,0,1,1.56-3.23L50.72,347l4.11-3.67,2.71,1.93Zm2.38,7.54a5.91,5.91,0,1,0,8.35.47A5.9,5.9,0,0,0,59.92,352.83Z" style="fill:#ebebeb"></path><path d="M100.89,189.37a13.69,13.69,0,0,1,3.39-1.19l.92-3.2,5.5.32.55,3.28a13.61,13.61,0,0,1,3.24,1.56l2.91-1.61,3.66,4.11-1.93,2.71a13.13,13.13,0,0,1,1.18,3.39l3.2.92-.31,5.5-3.28.55a13.37,13.37,0,0,1-1.56,3.23l1.61,2.92-4.11,3.66-2.71-1.93a13.66,13.66,0,0,1-3.39,1.18l-.92,3.2-5.5-.31-.55-3.29a13,13,0,0,1-3.23-1.56l-2.92,1.62L93,210.32l1.93-2.71a13.66,13.66,0,0,1-1.18-3.39l-3.2-.92.31-5.5,3.28-.55A13.61,13.61,0,0,1,95.68,194l-1.61-2.91,4.11-3.67,2.71,1.94Zm2.38,7.53a5.91,5.91,0,1,0,8.35.48A5.92,5.92,0,0,0,103.27,196.9Z" style="fill:#f5f5f5"></path><path d="M667.63,246.06a13.38,13.38,0,0,1,3.39-1.18l.92-3.2,5.49.31.55,3.29a13.61,13.61,0,0,1,3.24,1.56l2.91-1.62,3.67,4.11L685.87,252a13.66,13.66,0,0,1,1.18,3.39l3.2.92-.32,5.5-3.28.55a13.61,13.61,0,0,1-1.56,3.24l1.61,2.91-4.11,3.67-2.71-1.94a13.41,13.41,0,0,1-3.39,1.19l-.92,3.2-5.5-.32-.55-3.28a13.37,13.37,0,0,1-3.23-1.56l-2.91,1.61L659.71,267l1.93-2.71a13.52,13.52,0,0,1-1.18-3.39l-3.2-.92.31-5.5,3.29-.55a13.37,13.37,0,0,1,1.56-3.23l-1.61-2.91,4.11-3.67,2.71,1.93ZM670,253.6a5.91,5.91,0,1,0,8.34.47A5.9,5.9,0,0,0,670,253.6Z" style="fill:#f5f5f5"></path><path d="M217.29,212.38a20.32,20.32,0,0,1,5.05-1.75l1.37-4.77,8.18.47.82,4.89a19.93,19.93,0,0,1,4.81,2.32l4.34-2.4,5.45,6.12-2.87,4a20.14,20.14,0,0,1,1.76,5L251,227.7l-.47,8.18-4.88.82a20.21,20.21,0,0,1-2.33,4.82l2.4,4.33-6.11,5.46-4-2.88a20.14,20.14,0,0,1-5,1.76L229.12,255l-8.18-.47-.82-4.88a20.31,20.31,0,0,1-4.81-2.32l-4.34,2.4-5.45-6.12,2.87-4a20.35,20.35,0,0,1-1.76-5.05l-4.76-1.37.47-8.18,4.88-.82a20.31,20.31,0,0,1,2.32-4.81L207.15,215l6.11-5.46,4,2.87Zm3.55,11.22a8.79,8.79,0,1,0,12.41.71A8.78,8.78,0,0,0,220.84,223.6Z" style="fill:#f5f5f5"></path><path d="M647.36,391.15a7.81,7.81,0,0,1,4.84,3.73,13.63,13.63,0,0,1,1.71,6c.32,4-1.16,8.47-3,12.1-3.89-2.26-5.64-7.18-6.37-9.74-1.15-4-.79-12,2.78-12.08" style="fill:#ebebeb"></path><path d="M656.08,418.74a6.64,6.64,0,0,1,.91-6.62,8.85,8.85,0,0,1,6-3.24,3.73,3.73,0,0,1,3.06.72,2.85,2.85,0,0,1,.59,2.82,5.79,5.79,0,0,1-1.7,2.48c-2.53,2.36-5.42,4.19-8.87,3.84" style="fill:#ebebeb"></path><path d="M654.16,431.69a5,5,0,0,1,0-.83c0-.59,0-1.36,0-2.28a23.31,23.31,0,0,1,.9-7.45,14.3,14.3,0,0,1,4-6.32,9.73,9.73,0,0,1,1.88-1.31,5.82,5.82,0,0,1,.56-.26c.13-.06.2-.08.21-.07a15.17,15.17,0,0,0-2.51,1.79,14.84,14.84,0,0,0-3.86,6.26,25.51,25.51,0,0,0-1,7.37c0,1,0,1.73-.07,2.27A5,5,0,0,1,654.16,431.69Z" style="fill:#e0e0e0"></path><path d="M647.62,397.26a1.63,1.63,0,0,1,.11.35c.07.26.15.59.26,1,.22.87.52,2.14.88,3.72.71,3.15,1.64,7.51,2.56,12.35s1.64,9.24,2.12,12.44c.24,1.59.43,2.88.55,3.78,0,.42.09.76.12,1a1.64,1.64,0,0,1,0,.36,1.55,1.55,0,0,1-.09-.35q-.06-.39-.18-1c-.15-.93-.37-2.21-.63-3.77-.54-3.18-1.3-7.58-2.21-12.42s-1.81-9.2-2.48-12.36c-.32-1.55-.59-2.82-.78-3.74-.08-.42-.15-.75-.21-1A1.89,1.89,0,0,1,647.62,397.26Z" style="fill:#e0e0e0"></path><path d="M650.79,422.26a15.61,15.61,0,0,0-10.52-9.58c-1.22-.32-2.74-.38-3.49.62s-.26,2.45.41,3.52a13.29,13.29,0,0,0,13.58,5.78" style="fill:#ebebeb"></path><path d="M641.53,416.33a3.74,3.74,0,0,1,.77.17,7.45,7.45,0,0,1,.88.27c.34.13.73.24,1.14.44a12.39,12.39,0,0,1,1.33.65,14.51,14.51,0,0,1,1.46.88,17.58,17.58,0,0,1,2.93,2.57,17,17,0,0,1,2.23,3.2c.27.54.52,1.05.71,1.55a12.25,12.25,0,0,1,.47,1.41,10,10,0,0,1,.29,1.18,6.56,6.56,0,0,1,.15.91,3.87,3.87,0,0,1,.06.79c-.06,0-.16-1.11-.69-2.82-.15-.43-.29-.9-.51-1.38a15.73,15.73,0,0,0-.72-1.51,17.29,17.29,0,0,0-2.21-3.13A17,17,0,0,0,647,419a14.43,14.43,0,0,0-1.42-.9,13.5,13.5,0,0,0-1.3-.67C642.61,416.65,641.52,416.39,641.53,416.33Z" style="fill:#e0e0e0"></path><path d="M446.77,425.8a7.8,7.8,0,0,1,4.84,3.73,13.86,13.86,0,0,1,1.71,6c.31,4-1.16,8.47-3,12.09-3.89-2.26-5.64-7.18-6.37-9.73-1.15-4-.78-12,2.79-12.08" style="fill:#ebebeb"></path><path d="M455.48,453.39a6.66,6.66,0,0,1,.91-6.62,8.85,8.85,0,0,1,6-3.24,3.67,3.67,0,0,1,3,.72,2.82,2.82,0,0,1,.59,2.82,5.65,5.65,0,0,1-1.69,2.47c-2.54,2.37-5.42,4.2-8.88,3.85" style="fill:#ebebeb"></path><path d="M453.56,466.34a5.09,5.09,0,0,1,0-.84c0-.59,0-1.35,0-2.27a23.36,23.36,0,0,1,.91-7.45,14.32,14.32,0,0,1,4-6.33,10,10,0,0,1,1.87-1.3,4.7,4.7,0,0,1,.57-.26c.13-.06.2-.08.2-.07a14,14,0,0,0-2.5,1.79,14.74,14.74,0,0,0-3.86,6.26,24.81,24.81,0,0,0-1,7.36c0,1,0,1.74-.07,2.28A4.4,4.4,0,0,1,453.56,466.34Z" style="fill:#e0e0e0"></path><path d="M447,431.91a2.93,2.93,0,0,1,.11.35c.06.26.15.59.25,1,.22.88.52,2.15.88,3.73.72,3.14,1.64,7.51,2.56,12.35s1.64,9.24,2.13,12.43c.24,1.6.42,2.89.54,3.79.05.42.09.76.13,1a1.94,1.94,0,0,1,0,.36,1.5,1.5,0,0,1-.08-.35c-.05-.27-.11-.61-.18-1-.16-.92-.37-2.2-.64-3.77-.53-3.18-1.29-7.57-2.21-12.41s-1.81-9.2-2.47-12.36c-.33-1.55-.59-2.82-.79-3.74-.08-.42-.15-.76-.2-1A1.89,1.89,0,0,1,447,431.91Z" style="fill:#e0e0e0"></path><path d="M450.19,456.91a15.53,15.53,0,0,0-10.52-9.58c-1.21-.32-2.73-.39-3.49.62s-.26,2.45.41,3.52a13.31,13.31,0,0,0,13.58,5.78" style="fill:#ebebeb"></path><path d="M440.94,451a3.74,3.74,0,0,1,.76.17,9.16,9.16,0,0,1,.89.27c.33.13.73.25,1.13.45a11.64,11.64,0,0,1,1.34.65,15.62,15.62,0,0,1,1.45.88,17.24,17.24,0,0,1,2.94,2.57,16.63,16.63,0,0,1,2.22,3.2,14.86,14.86,0,0,1,.71,1.55,13,13,0,0,1,.48,1.4c.15.43.2.84.29,1.19a6.37,6.37,0,0,1,.14.91,4.49,4.49,0,0,1,.07.78c-.07,0-.17-1.11-.7-2.82a13.17,13.17,0,0,0-.51-1.37,13.51,13.51,0,0,0-.71-1.51,18,18,0,0,0-2.21-3.14,18.42,18.42,0,0,0-2.87-2.54c-.49-.33-1-.64-1.42-.89s-.9-.48-1.3-.68C442,451.3,440.92,451,440.94,451Z" style="fill:#e0e0e0"></path><path d="M543.76,419.47a87.64,87.64,0,0,1-6-7.58,91,91,0,0,1-5.64-7.91,88.84,88.84,0,0,1,6,7.59A93.69,93.69,0,0,1,543.76,419.47Z" style="fill:#e0e0e0"></path><path d="M547.78,419.7a76.33,76.33,0,0,1-3.32-8.3,78.12,78.12,0,0,1-2.83-8.48,75.31,75.31,0,0,1,3.32,8.3A77.32,77.32,0,0,1,547.78,419.7Z" style="fill:#e0e0e0"></path><path d="M554.27,404.62c.16.06-1.13,3.26-1.93,7.39s-.85,7.57-1,7.57a8,8,0,0,1-.11-2.25,32.73,32.73,0,0,1,.61-5.42,33.47,33.47,0,0,1,1.49-5.24A8.67,8.67,0,0,1,554.27,404.62Z" style="fill:#e0e0e0"></path><path d="M312.55,462.9a14.59,14.59,0,0,1-1.8-2L306.61,456,302.48,451a14.4,14.4,0,0,1-1.64-2.12,12.84,12.84,0,0,1,1.91,1.88c1.13,1.2,2.65,2.91,4.26,4.85s3,3.72,4,5A13.58,13.58,0,0,1,312.55,462.9Z" style="fill:#e0e0e0"></path><path d="M319.19,463.72a87.09,87.09,0,0,1-4.74-8.38,87.43,87.43,0,0,1-4.27-8.62,181.59,181.59,0,0,1,9,17Z" style="fill:#e0e0e0"></path><path d="M327.69,447.41a18,18,0,0,1-.89,2.5A49.48,49.48,0,0,0,325,456a50.22,50.22,0,0,0-.94,6.29,18.9,18.9,0,0,1-.24,2.64,9.62,9.62,0,0,1-.12-2.66,34.55,34.55,0,0,1,.79-6.38,35.46,35.46,0,0,1,2-6.12A10.63,10.63,0,0,1,327.69,447.41Z" style="fill:#e0e0e0"></path><path d="M165,108.62c.82-6-7.58-10.85-13.9-11.36-3-.25-6.14.21-9-.78-6.18-2.15-8.65-10.14-14.68-12.69-4.51-1.9-9.71-.2-14.08,2s-8.69,5-13.57,5.28c-4.25.27-8.87-1.31-12.58.77-2.77,1.55-4.22,4.74-6.78,6.62s-5.75,2.23-8.85,2.4-6.31.2-9.13,1.49-5.16,4.28-4.57,7.33Z" style="fill:#f5f5f5"></path><path d="M228.18,68.37c.47-3.4-4.33-6.2-7.94-6.49-1.72-.14-3.51.13-5.14-.44-3.53-1.23-4.94-5.79-8.39-7.25-2.57-1.08-5.54-.12-8,1.14s-5,2.84-7.75,3c-2.43.15-5.06-.75-7.19.44-1.58.88-2.41,2.71-3.87,3.78a9.15,9.15,0,0,1-5.05,1.37,14.28,14.28,0,0,0-5.22.86c-1.61.73-3,2.44-2.61,4.18Z" style="fill:#f5f5f5"></path><path d="M567.48,44.61c.61-4.41-5.62-8-10.3-8.41-2.23-.18-4.54.16-6.66-.58-4.58-1.59-6.4-7.51-10.87-9.39-3.34-1.41-7.19-.16-10.43,1.47s-6.43,3.68-10.05,3.91c-3.15.2-6.57-1-9.32.57-2.05,1.15-3.12,3.51-5,4.91s-4.26,1.65-6.55,1.78-4.68.14-6.77,1.1-3.82,3.17-3.38,5.43Z" style="fill:#f5f5f5"></path><path d="M697.74,139.13c.49-3.56-4.52-6.48-8.29-6.78-1.8-.15-3.67.13-5.37-.47-3.69-1.28-5.16-6-8.77-7.57-2.69-1.13-5.79-.12-8.4,1.19s-5.18,3-8.1,3.15c-2.54.16-5.29-.78-7.51.46-1.65.93-2.52,2.83-4,4A9.65,9.65,0,0,1,642,134.5a14.92,14.92,0,0,0-5.45.89c-1.68.77-3.07,2.55-2.72,4.37Z" style="fill:#f5f5f5"></path><path d="M436,136.64c.84-6.09-7.77-11.11-14.23-11.63-3.09-.25-6.29.22-9.21-.79-6.33-2.21-8.86-10.39-15-13-4.62-2-9.93-.22-14.41,2s-8.9,5.08-13.9,5.4c-4.35.28-9.07-1.33-12.88.79-2.83,1.59-4.32,4.86-6.93,6.78s-5.89,2.29-9.07,2.46-6.45.21-9.34,1.53-5.28,4.38-4.68,7.5Z" style="fill:#f5f5f5"></path></g><g id="freepik--Floor--inject-25"><path d="M724.64,301.52c0,.14-155.72,39.4-347.84,87.69s-347.95,87.34-348,87.2,155.68-39.4,347.87-87.7S724.6,301.38,724.64,301.52Z" style="fill:#263238"></path></g><g id="freepik--Plants--inject-25"><path d="M400,383.23a26.73,26.73,0,0,0-9.95-9.09,6.29,6.29,0,0,1,1.89.73,18.51,18.51,0,0,1,4,2.79,18.16,18.16,0,0,1,3.14,3.75A5.91,5.91,0,0,1,400,383.23Z" style="fill:#263238"></path><path d="M402.35,362.55c.08,0-.22,1.09-.45,2.86a23.3,23.3,0,0,0,2.24,13.48c.79,1.6,1.43,2.51,1.35,2.56s-.21-.19-.52-.59a15.73,15.73,0,0,1-1.16-1.79,21,21,0,0,1-2.28-13.72,14.55,14.55,0,0,1,.52-2.07C402.21,362.8,402.31,362.54,402.35,362.55Z" style="fill:#263238"></path><path d="M412,369a11.24,11.24,0,0,1-.73,1.53,11.77,11.77,0,0,0-1,3.86,11.5,11.5,0,0,0,.37,4,10.89,10.89,0,0,1,.47,1.63,3.74,3.74,0,0,1-.82-1.51,9.86,9.86,0,0,1-.54-4.14,10,10,0,0,1,1.2-4A4,4,0,0,1,412,369Z" style="fill:#263238"></path><path d="M681.39,312.31A39.39,39.39,0,0,0,677.2,307a38.9,38.9,0,0,0-5.41-4.12,6.12,6.12,0,0,1,1.86.8,18.41,18.41,0,0,1,6.91,6.81A6.27,6.27,0,0,1,681.39,312.31Z" style="fill:#263238"></path><path d="M684.57,291.74c.09,0-.26,1.08-.56,2.84a24.37,24.37,0,0,0-.15,6.91,23.78,23.78,0,0,0,1.88,6.65c.73,1.62,1.33,2.56,1.25,2.61s-.2-.2-.49-.61a14.38,14.38,0,0,1-1.09-1.84,20.58,20.58,0,0,1-2.06-6.75,20.85,20.85,0,0,1,.3-7,16,16,0,0,1,.59-2.06A2.4,2.4,0,0,1,684.57,291.74Z" style="fill:#263238"></path><path d="M694,298.54a12.44,12.44,0,0,1-.79,1.49,11.59,11.59,0,0,0-.95,7.82,9.84,9.84,0,0,1,.41,1.64,3.81,3.81,0,0,1-.76-1.54,9.8,9.8,0,0,1-.38-4.16,9.92,9.92,0,0,1,1.36-3.94A3.73,3.73,0,0,1,694,298.54Z" style="fill:#263238"></path><path d="M107.62,456.4a39.61,39.61,0,0,0-4-5.48,38.18,38.18,0,0,0-5.28-4.28,6.06,6.06,0,0,1,1.84.86,17.9,17.9,0,0,1,3.81,3.06,18.5,18.5,0,0,1,2.87,4A5.79,5.79,0,0,1,107.62,456.4Z" style="fill:#263238"></path><path d="M111.28,435.94c.08,0-.3,1.07-.66,2.82a23.43,23.43,0,0,0,1.29,13.61c.68,1.64,1.25,2.6,1.17,2.64s-.19-.2-.47-.62a13.29,13.29,0,0,1-1-1.88,20.88,20.88,0,0,1-1.31-13.84,12.73,12.73,0,0,1,.66-2C111.12,436.17,111.24,435.92,111.28,435.94Z" style="fill:#263238"></path><path d="M120.28,442.75a10.13,10.13,0,0,1-.84,1.48,11.64,11.64,0,0,0-1.28,3.78,11.52,11.52,0,0,0,.09,4,13.82,13.82,0,0,1,.36,1.65,3.56,3.56,0,0,1-.72-1.57,9.86,9.86,0,0,1,1.24-8A4,4,0,0,1,120.28,442.75Z" style="fill:#263238"></path><path d="M431.93,339.07a6.63,6.63,0,0,1,4.8,2,12,12,0,0,1,2.75,4.59c1.18,3.28,1,7.29.31,10.71-3.69-1-6.23-4.68-7.41-6.63-1.85-3.09-3.36-9.81-.45-10.67" style="fill:#FF725E"></path><path d="M445.3,360a5.8,5.8,0,0,1-.75-5.7,7.5,7.5,0,0,1,4.18-4.06,3.11,3.11,0,0,1,2.66-.1,2.45,2.45,0,0,1,1.13,2.21,5,5,0,0,1-.83,2.44c-1.54,2.54-3.49,4.72-6.39,5.21" style="fill:#FF725E"></path><path d="M446.66,371.2a4.24,4.24,0,0,1-.22-.69c-.14-.49-.32-1.12-.53-1.88a20.54,20.54,0,0,1-1-6.4,12.51,12.51,0,0,1,1.84-6.16,8.43,8.43,0,0,1,1.24-1.51c.16-.16.31-.27.4-.35l.15-.1a13.45,13.45,0,0,0-1.64,2.06,12.82,12.82,0,0,0-1.74,6.08,21.88,21.88,0,0,0,.87,6.33c.19.81.35,1.46.45,1.91A3.49,3.49,0,0,1,446.66,371.2Z" style="fill:#263238"></path><path d="M433.52,344.09s.07.08.17.26l.44.78c.37.68.91,1.66,1.56,2.89,1.29,2.45,3,5.86,4.89,9.68s3.43,7.3,4.55,9.84c.56,1.27,1,2.3,1.3,3l.34.83a1,1,0,0,1,.1.29s-.06-.09-.15-.27-.22-.48-.38-.81l-1.37-3c-1.16-2.52-2.77-6-4.62-9.8s-3.56-7.23-4.82-9.71L434,345.18l-.4-.8A2.34,2.34,0,0,1,433.52,344.09Z" style="fill:#263238"></path><path d="M441.77,364.13A13.21,13.21,0,0,0,431,358.56c-1.06,0-2.32.31-2.71,1.31s.34,2.1,1.13,2.83a11.17,11.17,0,0,0,12.42,1.72" style="fill:#FF725E"></path><path d="M432.86,361.3a5.48,5.48,0,0,1,.66,0,7.51,7.51,0,0,1,.78,0c.31,0,.66,0,1,.1s.8.12,1.24.24a10.26,10.26,0,0,1,1.39.41,13.87,13.87,0,0,1,3,1.46,14.11,14.11,0,0,1,2.55,2.15,12.88,12.88,0,0,1,.93,1.13c.28.36.5.73.71,1.06a7.86,7.86,0,0,1,.5.92,6,6,0,0,1,.33.72,5.1,5.1,0,0,1,.23.63c-.05,0-.39-.88-1.21-2.18a11.38,11.38,0,0,0-.72-1c-.27-.37-.6-.72-.94-1.1a15.24,15.24,0,0,0-2.51-2.1,15.91,15.91,0,0,0-2.92-1.46c-.48-.16-.93-.32-1.37-.42s-.84-.19-1.21-.26C433.81,361.33,432.85,361.36,432.86,361.3Z" style="fill:#263238"></path></g><g id="freepik--Birds--inject-25"><path d="M354.52,78.27s-.75-.24-2.12-.5a17,17,0,0,0-5.89-.07,15.85,15.85,0,0,0-7.82,3.64,16.44,16.44,0,0,0-5.35,9l0,.1-.15.64-.26-.6a17.69,17.69,0,0,0-6.91-7.9,17.22,17.22,0,0,0-8.25-2.5,18.2,18.2,0,0,0-5.83.7c-1.33.39-2,.73-2.05.69a1.75,1.75,0,0,1,.5-.26,12.61,12.61,0,0,1,1.51-.59,17.47,17.47,0,0,1,5.88-.84,17.15,17.15,0,0,1,8.44,2.47,17.9,17.9,0,0,1,7.11,8.06l-.41,0,0-.1A16.66,16.66,0,0,1,338.43,81a15.89,15.89,0,0,1,8-3.63,16.15,16.15,0,0,1,6,.19,12.57,12.57,0,0,1,1.56.45A2.61,2.61,0,0,1,354.52,78.27Z" style="fill:#263238"></path><path d="M412.48,47.64s-.42-.1-1.18-.24a9.43,9.43,0,0,0-3.21,0,8.58,8.58,0,0,0-4.26,2,8.91,8.91,0,0,0-2.9,4.92l0,0-.14.64-.26-.6a9.65,9.65,0,0,0-3.76-4.3,9.36,9.36,0,0,0-4.5-1.38,10.13,10.13,0,0,0-3.19.35c-.73.2-1.13.37-1.14.34s.09-.07.27-.16a5.1,5.1,0,0,1,.82-.34,9.52,9.52,0,0,1,7.94.85,9.93,9.93,0,0,1,3.95,4.47l-.4,0v-.06a9.26,9.26,0,0,1,3.06-5.13,8.94,8.94,0,0,1,7.77-1.86,5.59,5.59,0,0,1,.86.27A1,1,0,0,1,412.48,47.64Z" style="fill:#263238"></path><path d="M373.7,35.51s-.39.47-1.1,1.31a28.29,28.29,0,0,0-2.65,3.8,27,27,0,0,0-3.7,14.6v.18l-.42.05A23.55,23.55,0,0,0,363,47.68a24.13,24.13,0,0,0-4.18-5.34,24.75,24.75,0,0,0-3.58-2.87c-.91-.59-1.43-.89-1.42-.92s.15,0,.4.17a11.92,11.92,0,0,1,1.11.61,22.28,22.28,0,0,1,3.7,2.79,24,24,0,0,1,4.31,5.36,23.45,23.45,0,0,1,2.95,7.9l-.42,0v-.18a26.61,26.61,0,0,1,3.87-14.78,24.29,24.29,0,0,1,2.79-3.75c.36-.42.68-.7.88-.91S373.68,35.5,373.7,35.51Z" style="fill:#263238"></path></g><g id="freepik--speech-bubble-2--inject-25"><path d="M525.24,104.83,524.78,99a22.48,22.48,0,1,0-5.84,5.55h0Z" style="fill:#fff"></path><path d="M525.24,104.83a3.81,3.81,0,0,1-.39,0l-1.2,0-4.72-.19a.08.08,0,0,1-.08-.09.08.08,0,0,1,0-.05h0l.11.13a22.34,22.34,0,0,1-10.22,3.64,23.35,23.35,0,0,1-7.17-.44,22.67,22.67,0,0,1-7.49-3.23,23.14,23.14,0,0,1-6.34-6.4,22,22,0,0,1-3.51-9.1,23.25,23.25,0,0,1,.86-10.33,22.29,22.29,0,0,1,5.76-9.21,23.33,23.33,0,0,1,4.45-3.38c.82-.43,1.63-.87,2.47-1.23l1.28-.49.64-.23.65-.18a23.15,23.15,0,0,1,10.47-.49,22.2,22.2,0,0,1,9,3.92A23.28,23.28,0,0,1,526,74.12a22.55,22.55,0,0,1,2.88,7.69c.09.64.17,1.27.25,1.89s0,1.24.07,1.84A20.51,20.51,0,0,1,529,89a22.46,22.46,0,0,1-4.13,10V99l.3,4.39c0,.48.05.85.07,1.12a2.54,2.54,0,0,1,0,.37s0-.14,0-.39-.06-.66-.11-1.14c-.09-1-.22-2.47-.39-4.33a.11.11,0,0,1,0-.06,22.46,22.46,0,0,0,4-9.94,21.22,21.22,0,0,0,.21-3.43c0-.59,0-1.2-.09-1.81s-.16-1.24-.25-1.87a22.34,22.34,0,0,0-2.88-7.56,22.65,22.65,0,0,0-6.07-6.55,21.58,21.58,0,0,0-8.87-3.84,22.7,22.7,0,0,0-10.27.5l-.64.17-.63.23-1.25.48c-.83.35-1.62.79-2.43,1.21a22.85,22.85,0,0,0-4.36,3.32,21.77,21.77,0,0,0-5.65,9A22.87,22.87,0,0,0,484.66,89a21.66,21.66,0,0,0,3.43,8.94,22.89,22.89,0,0,0,6.22,6.33,22.25,22.25,0,0,0,7.37,3.2,22.71,22.71,0,0,0,7.06.49,22.29,22.29,0,0,0,10.15-3.52.09.09,0,0,1,.12.14h0l-.06-.14,4.66.29,1.21.08Z" style="fill:#263238"></path><path d="M511.91,92.9l6.92-10.69-12-4.54s.58,1.77,1.34,4L495.46,86l2.5,7.16L510.61,89C511.36,91.22,511.91,92.9,511.91,92.9Z" style="fill:#FF725E"></path></g><g id="freepik--speech-bubble-1--inject-25"><path d="M281.9,170.93l-.64-5.87a22.48,22.48,0,1,0-5.67,5.73h0Z" style="fill:#fff"></path><path d="M281.9,170.93h-1.59l-4.73,0c-.05,0-.09,0-.09-.09a.14.14,0,0,1,0-.06h0l.12.13a22.48,22.48,0,0,1-10.12,4,23.08,23.08,0,0,1-7.18-.24,22.6,22.6,0,0,1-7.6-3,23.24,23.24,0,0,1-6.55-6.22,22.1,22.1,0,0,1-3.78-9A23,23,0,0,1,241,146a22.25,22.25,0,0,1,5.48-9.4,23.54,23.54,0,0,1,4.35-3.52c.81-.45,1.61-.92,2.44-1.3l1.27-.53.63-.26.65-.19a23,23,0,0,1,10.45-.81,22.21,22.21,0,0,1,9.15,3.65,23.12,23.12,0,0,1,6.36,6.51,22.84,22.84,0,0,1,3.12,7.6q.15,1,.3,1.89c.08.62.09,1.24.13,1.84a20.93,20.93,0,0,1-.12,3.48,22.45,22.45,0,0,1-3.84,10.14l0-.06c.18,1.89.33,3.36.43,4.38,0,.48.07.85.1,1.13a2.07,2.07,0,0,1,0,.37l-.06-.4c0-.28-.08-.66-.14-1.14-.12-1-.3-2.46-.52-4.32a.13.13,0,0,1,0-.06,22.3,22.3,0,0,0,3.7-10.07,19.47,19.47,0,0,0,.11-3.44c-.05-.59-.06-1.2-.14-1.81s-.21-1.23-.31-1.86a22.36,22.36,0,0,0-3.11-7.48,22.66,22.66,0,0,0-6.28-6.38,21.79,21.79,0,0,0-9-3.56,22.64,22.64,0,0,0-10.26.8l-.64.19-.62.26-1.24.51c-.82.38-1.6.84-2.39,1.28a22.79,22.79,0,0,0-4.27,3.46,21.82,21.82,0,0,0-5.38,9.21,22.75,22.75,0,0,0-.56,10.18,21.76,21.76,0,0,0,3.7,8.84,22.77,22.77,0,0,0,6.42,6.14,22.26,22.26,0,0,0,7.47,3,22.8,22.8,0,0,0,7.08.27,22.31,22.31,0,0,0,10.06-3.82.08.08,0,0,1,.12,0,.09.09,0,0,1,0,.1h0l-.07-.14,4.67.15,1.23,0Z" style="fill:#263238"></path><polygon points="250.77 152.51 254.4 149.38 260.48 155.66 274.19 144.31 277.08 147.92 259.51 162.14 250.77 152.51" style="fill:#FF725E"></polygon></g><g id="freepik--character-3--inject-25"><path d="M613.34,165.9c.28,0,3.64-.23,4.34-1.15a2.34,2.34,0,0,0,.14-2.17,3.86,3.86,0,0,0,1.38-2.07,4.13,4.13,0,0,0-.66-2.43l.35-1.06a2.21,2.21,0,0,0-.22-2.3,4,4,0,0,1-1.43-2c-.3-1.18-4-1.78-5.73-2.19s-4.15-1-6,1.19c-2.54,2.9-6.83,7.47-6.83,7.47l3.21,9.64s1.53,1,5,.22A17.84,17.84,0,0,0,613.34,165.9Z" style="fill:#ae7461"></path><path d="M689.49,84.68a74.78,74.78,0,0,1-17.23,2.46c-8.25,0-16.8-2.22-23.22-8-7.08-6.4-11-16.53-18.71-22-6.88-4.92-17.13-4.2-24.1.43l2.14,47.28c3.5-3,10-9,20.41-4.46,4.15,1.81,7.89,3.81,11.9,6,11.24,6.08,22.5,5,33.79-.63,4.21-2.11,10-6.2,16.94-14.8C694.59,87,691.83,84.12,689.49,84.68Z" style="fill:#FF725E"></path><path d="M615.94,261.51l-.27-6.06q-.36-7.75-.7-15.5l-1-22.52q-.63-13.71-1.24-27.43-.69-15-1.36-29.95T610,130q-.63-14-1.27-28.1-.54-11.85-1.07-23.71-.39-8.49-.77-17c-.12-2.69-.19-5.39-.37-8.07,0-.12,0-.23,0-.35a.63.63,0,0,0-1.25.06c.08,1.85.16,3.69.25,5.54q.33,7.54.68,15.09.5,11.11,1,22.22l1.23,27.25,1.35,29.89q.68,15,1.36,30.09.64,14.13,1.28,28.26.54,12,1.09,24l.78,17.36c.13,2.85.22,5.71.39,8.56,0,.16,0,.33,0,.49a.63.63,0,0,0,1.25-.06Z" style="fill:#263238"></path><path d="M617.55,158.25a16.07,16.07,0,0,1-3.69.72c-.58.05-1.17.06-1.74.16a3.74,3.74,0,0,0-1.62.63,2.05,2.05,0,0,0-.84,1.47,1.42,1.42,0,0,0,.86,1.4,1.3,1.3,0,0,0-.69,1.52,2,2,0,0,0,1.2,1.31,5.18,5.18,0,0,0,1.79.35,11.74,11.74,0,0,0,2.71-.13,3.54,3.54,0,0,0,2.08-1,1.66,1.66,0,0,0,.14-2.15,2.47,2.47,0,0,0,1-1.56" style="fill:#ae7461"></path><path d="M610.07,158.62a1.77,1.77,0,0,1-1-1.73c.13-.81.95-1.31,1.72-1.59a16.93,16.93,0,0,1,5.81-.65l.93.59a4,4,0,0,1,.42,1.24,1.49,1.49,0,0,1-.33,1.22,2.34,2.34,0,0,1-1.12.5,17.37,17.37,0,0,1-3.75.72A6.73,6.73,0,0,1,610.07,158.62Z" style="fill:#ae7461"></path><path d="M617.82,162.58a9.81,9.81,0,0,0-2-.14c-1.22,0-2.92-.06-4.79-.06h-.69a.83.83,0,0,0-.21,0,.62.62,0,0,0-.24.13.8.8,0,0,0-.22.37,2.81,2.81,0,0,0,0,1.36,1.74,1.74,0,0,0,.67,1.05,2.91,2.91,0,0,0,1,.45,5.49,5.49,0,0,0,1.46.21c.35,0,.54,0,.54-.06a19.54,19.54,0,0,1-1.91-.43,1.82,1.82,0,0,1-1.34-1.3,2.79,2.79,0,0,1,0-1.15.41.41,0,0,1,.11-.19c.06-.05,0,0,.19,0h.69c1.87,0,3.56,0,4.78-.07A9.29,9.29,0,0,0,617.82,162.58Z" style="fill:#6f4439"></path><path d="M618.54,158.08a7.19,7.19,0,0,0-1.67.11c-1,.11-2.43.3-4,.53h-.14a4.49,4.49,0,0,0-2.29.59,2,2,0,0,0-.94,1.69,2.4,2.4,0,0,0,.4,1.24c.17.26.31.37.33.35s-.07-.16-.19-.43a2.62,2.62,0,0,1-.25-1.15,1.68,1.68,0,0,1,.86-1.38,4.42,4.42,0,0,1,2.09-.49h.19c1.57-.24,3-.48,4-.67A6.71,6.71,0,0,0,618.54,158.08Z" style="fill:#6f4439"></path><path d="M618.67,154.72a14.21,14.21,0,0,0-2.35.84h.06c-1.33-.06-3.13-.12-5.1-.15l-1.28,0h-.09l-.06.06a4,4,0,0,0-.76,1.15,2,2,0,0,0-.1,1.3,1.4,1.4,0,0,0,.78.88,3,3,0,0,0,.94.25,5.23,5.23,0,0,0,1.35,0,1.28,1.28,0,0,0,.48-.11c0-.07-.7,0-1.79-.14-.51-.09-1.25-.29-1.41-1a2.33,2.33,0,0,1,.8-2l-.15.06,1.28,0c2,0,3.77.05,5.11.05h0l0,0A13.79,13.79,0,0,0,618.67,154.72Z" style="fill:#6f4439"></path><path d="M601.41,158.8s4.67-6.55,4.89-6.65,7.4-.81,9-.05S618.9,154,618.9,154s.18,1.85-2.66,1.9-5.82-.11-5.82-.11L608.79,158s.46,6.12-5,7.67" style="fill:#ae7461"></path><path d="M603.79,165.66a3.52,3.52,0,0,0,.68-.19,3.82,3.82,0,0,0,.79-.34,5.65,5.65,0,0,0,1-.62,6.7,6.7,0,0,0,1.93-2.49,9.26,9.26,0,0,0,.77-4l0,.1c.53-.7,1.07-1.45,1.65-2.22l-.16.07c1.38.08,2.84.13,4.36.14a14.58,14.58,0,0,0,2.36-.1,2.93,2.93,0,0,0,1.18-.47,1.79,1.79,0,0,0,.74-1.09,1.71,1.71,0,0,0,.05-.46v-.1l-.09,0-2-1-1-.49a5.53,5.53,0,0,0-1-.46,8.88,8.88,0,0,0-2.08-.25c-.68,0-1.34,0-2,0-1.28,0-2.5.14-3.63.26l-.84.09-.21,0-.13,0-.12.1-.26.33-.91,1.22c-1.13,1.57-2,2.85-2.63,3.74l-.69,1c-.16.24-.24.36-.22.37a1.81,1.81,0,0,0,.28-.33l.75-1c.68-.9,1.6-2.14,2.73-3.66.3-.38.6-.78.92-1.2l.24-.29,0,0h0s0,0,0-.07c0,.09,0,.06,0,.06h0l.19,0,.83-.09c1.13-.1,2.34-.17,3.61-.21.64,0,1.29,0,2,0a8.79,8.79,0,0,1,2,.24,6.36,6.36,0,0,1,.92.44l1,.5,1.94,1-.1-.15a1.35,1.35,0,0,1,0,.33,1.81,1.81,0,0,1-1.61,1.27,14.45,14.45,0,0,1-2.28.1c-1.52,0-3-.05-4.35-.11h-.09l-.06.07-1.62,2.24,0,.05V158a9.2,9.2,0,0,1-.69,3.91,6.72,6.72,0,0,1-1.8,2.46A10.06,10.06,0,0,1,603.79,165.66Z" style="fill:#6f4439"></path><path d="M599.25,157.36l-26.57,3.17L564.15,135l-8,37.5,5.31,3.86A13.76,13.76,0,0,0,573,178.59l30.33-7.28Z" style="fill:#FF725E"></path><path d="M559.8,133.72l2.51.36,1.38.72a59,59,0,0,1,4.95,26.55l-.5,9.75-6,61.2-20.5-4.85-.92-18Z" style="fill:#FF725E"></path><path d="M562,227.88s2-20.4,2.83-28.13,1.19-36,1.19-36S551.84,220,552.15,220.14,562,227.88,562,227.88Z" style="opacity:0.30000000000000004"></path><path d="M566.89,148a1.32,1.32,0,0,1,.11.45c.06.35.14.78.23,1.3.17,1.14.34,2.79.44,4.84.23,4.1.11,9.77-.19,16s-.7,11.89-.93,16c-.1,2-.18,3.63-.24,4.84,0,.53,0,1-.06,1.32a1.43,1.43,0,0,1-.06.46,2.1,2.1,0,0,1,0-.46c0-.36,0-.8,0-1.32,0-1.15,0-2.81.09-4.86.14-4.09.48-9.74.79-16s.47-11.9.33-16c-.06-2.05-.18-3.7-.29-4.83-.06-.53-.1-1-.14-1.31A2.09,2.09,0,0,1,566.89,148Z" style="fill:#263238"></path><path d="M512,332.15l-2.52,11.14.05,1.46s17.87,5.3,18.28,8.51l-33.7,2.25-.56-7.73,3.55-18.41Z" style="fill:#263238"></path><path d="M499,344a1.39,1.39,0,0,0-.85,1.64,1.34,1.34,0,0,0,1.62.85,1.45,1.45,0,0,0,.88-1.74,1.37,1.37,0,0,0-1.77-.7" style="fill:#e0e0e0"></path><path d="M494.09,355.51l-.09-2.73,32.35-1.14s1.54.55,1.44,1.62Z" style="fill:#455a64"></path><path d="M510,344.55c0,.16-.81.29-1.58.87s-1.16,1.31-1.32,1.25,0-1,1-1.71S510.07,344.39,510,344.55Z" style="fill:#fff"></path><path d="M513.68,345.77c.05.16-.65.49-1.16,1.22s-.63,1.48-.79,1.48-.33-.92.32-1.82S513.66,345.62,513.68,345.77Z" style="fill:#fff"></path><path d="M516,349.87c-.15,0-.43-.76-.07-1.69s1.11-1.34,1.19-1.21-.37.65-.65,1.41S516.13,349.84,516,349.87Z" style="fill:#fff"></path><path d="M600.61,310l-1,11.37.24,1.45s18.42,2.84,19.27,6L586,335.61l-1.59-7.6,1-18.71Z" style="fill:#263238"></path><path d="M589.34,323.53a1.37,1.37,0,0,0-.62,1.73,1.33,1.33,0,0,0,1.71.63,1.46,1.46,0,0,0,.65-1.84,1.39,1.39,0,0,0-1.86-.46" style="fill:#e0e0e0"></path><path d="M586,335.61l-.45-2.7,31.9-5.5s1.6.34,1.65,1.41Z" style="fill:#455a64"></path><path d="M600.37,322.58c0,.17-.77.41-1.46,1.09s-1,1.45-1.13,1.41-.12-1,.73-1.82S600.37,322.43,600.37,322.58Z" style="fill:#fff"></path><path d="M604.13,323.31c.07.15-.57.57-1,1.36s-.42,1.55-.58,1.58-.46-.87.07-1.85S604.1,323.16,604.13,323.31Z" style="fill:#fff"></path><path d="M607,327.06c-.14.06-.53-.7-.29-1.67s.91-1.48,1-1.35-.27.68-.45,1.48S607.11,327,607,327.06Z" style="fill:#fff"></path><path d="M573.15,96.27a3.77,3.77,0,0,0,2.12-7.2,3.92,3.92,0,0,0-2.94-6.84,4.69,4.69,0,0,0-6.78-4.35,5.28,5.28,0,0,0-6.47-.59,3.75,3.75,0,0,0-3.76,6.11" style="fill:#263238"></path><path d="M558,80.94l.83.06a16,16,0,0,1,14.83,15.83c.06,7.76,0,16.32-.33,20.45-.73,8.56-9.39,9.27-9.39,9.27l0,10.34-20.73-2.16.88-37.45C544,88.34,549.05,80.81,558,80.94Z" style="fill:#ae7461"></path><path d="M564,126.55A20.79,20.79,0,0,1,553,122.44s2.3,6.5,10.9,6.36Z" style="fill:#6f4439"></path><path d="M569.08,104.54a1.22,1.22,0,0,1-1.27,1.14,1.17,1.17,0,0,1-1.18-1.19,1.23,1.23,0,0,1,1.27-1.15A1.17,1.17,0,0,1,569.08,104.54Z" style="fill:#263238"></path><path d="M571.51,100.89c-.16.15-1-.61-2.35-.7s-2.33.5-2.46.32.11-.35.55-.62a3.38,3.38,0,0,1,2-.46,3.3,3.3,0,0,1,1.86.75C571.48,100.52,571.59,100.82,571.51,100.89Z" style="fill:#263238"></path><path d="M556.66,103.79a1.22,1.22,0,0,1-1.27,1.15,1.19,1.19,0,0,1-1.18-1.2,1.22,1.22,0,0,1,1.27-1.15A1.18,1.18,0,0,1,556.66,103.79Z" style="fill:#263238"></path><path d="M558.56,100.19c-.16.15-1-.61-2.35-.7s-2.33.5-2.46.32.11-.35.55-.62a3.34,3.34,0,0,1,2-.46,3.24,3.24,0,0,1,1.86.75C558.52,99.82,558.64,100.12,558.56,100.19Z" style="fill:#263238"></path><path d="M562.62,110.3a8.34,8.34,0,0,1,2.17-.23c.34,0,.66-.06.73-.28a1.67,1.67,0,0,0-.15-1l-.8-2.63a44,44,0,0,1-1.75-6.85,43.77,43.77,0,0,1,2.29,6.7c.27.92.53,1.8.77,2.64A2,2,0,0,1,566,110a.83.83,0,0,1-.59.45,2.42,2.42,0,0,1-.58,0A8.78,8.78,0,0,1,562.62,110.3Z" style="fill:#263238"></path><path d="M560.07,95.21c-.2.32-1.3-.12-2.68-.27s-2.57,0-2.67-.36c-.05-.17.22-.45.74-.68a4.18,4.18,0,0,1,2.12-.28,3.93,3.93,0,0,1,2,.76C560,94.72,560.16,95.06,560.07,95.21Z" style="fill:#263238"></path><path d="M572,95.47c-.3.27-1.36-.11-2.66-.22s-2.43,0-2.66-.31c-.1-.16.09-.45.6-.7a4.4,4.4,0,0,1,2.2-.33,4.18,4.18,0,0,1,2.09.76C572,95,572.11,95.33,572,95.47Z" style="fill:#263238"></path><path d="M573.12,92.85s-1.86-5.53-4.36-7c-3-1.74-4.62,1.59-7.54.54s-5.8-2.72-9-.64c-3.52,2.28-2.09,4.17-2.57,8-2,15.34-5.09,19.49-5.36,12.18,0-.8-2.19-1.6-2.27-5-.11-4.38.11-9.68,1.31-12.7,1-2.55,2.62-4.24,5.43-6,4.43-2.82,10.21-2.47,14.11-1.79S574,86.16,573.12,92.85Z" style="fill:#263238"></path><path d="M544.83,105.72a2.33,2.33,0,0,0-2.34-2.43c-1.61,0-3.46.82-3.59,4.12-.24,5.87,5.7,4.9,5.72,4.73S544.75,108.17,544.83,105.72Z" style="fill:#ae7461"></path><path d="M543.43,109.88s-.11.07-.28.14a1.07,1.07,0,0,1-.77,0,2.53,2.53,0,0,1-1.07-2.32,3.37,3.37,0,0,1,.34-1.45,1.19,1.19,0,0,1,.8-.75.53.53,0,0,1,.6.3c.07.17,0,.28.06.3s.13-.1.09-.34a.63.63,0,0,0-.22-.38.74.74,0,0,0-.56-.17,1.44,1.44,0,0,0-1.1.86,3.42,3.42,0,0,0-.42,1.62,2.67,2.67,0,0,0,1.38,2.6,1.14,1.14,0,0,0,1-.12C543.41,110,543.45,109.9,543.43,109.88Z" style="fill:#6f4439"></path><path d="M545.77,94.38a5.6,5.6,0,0,0,2.4,1.33,1.91,1.91,0,0,0,2.22-1.19c.1-.4,0-.88.32-1.18s.93-.19,1.42-.1c1.68.3,3.81-1.43,4.36-3.06a1.54,1.54,0,0,0,2,.58,5.77,5.77,0,0,0,1.5-1.15,2.37,2.37,0,0,1,2.08-.86,5.92,5.92,0,0,0,1.25.37c.78,0,1.22-.88,1.39-1.64s.33-1.64,1-2a3.06,3.06,0,0,1,2.1.09c.7.16,1.62.06,1.85-.62a1.34,1.34,0,0,0-.18-1.08,3.79,3.79,0,0,0-4.37-1.76,5.15,5.15,0,0,0-9.37-1.69,5.24,5.24,0,0,0-8.48,1.29,3.79,3.79,0,0,0-4.66,5.19,3.59,3.59,0,0,0-2.18,2.71c-.11,1.21,1,2.51,2.17,2.27a2.1,2.1,0,0,0,3.47,2.36" style="fill:#263238"></path><path d="M565.45,83.86a.87.87,0,0,1,0,.11c0,.07,0,.17-.06.31a3.48,3.48,0,0,1-.51,1.09,4,4,0,0,1-1.4,1.29,3.87,3.87,0,0,1-2.45.51l.11-.12a2.14,2.14,0,0,1-.23,1.61A6.19,6.19,0,0,1,559.79,90a4.29,4.29,0,0,1-.7.63,2,2,0,0,1-1,.27,2.13,2.13,0,0,1-1.83-.81l.22,0A4.41,4.41,0,0,1,554.44,93a3.28,3.28,0,0,1-2,.49,5.67,5.67,0,0,1-1.86-.56l.16-.06a4.67,4.67,0,0,1-1.52,1.71,2.46,2.46,0,0,1-2.08.41,3.25,3.25,0,0,1-2.3-2.71l.13.07a3,3,0,0,1-2,.15,3.24,3.24,0,0,1-1.36-.73A2.5,2.5,0,0,1,541,91a1.17,1.17,0,0,1-.13-.31,3.42,3.42,0,0,0,.79,1,3.25,3.25,0,0,0,1.33.66,2.89,2.89,0,0,0,1.92-.17l.12,0v.12a3,3,0,0,0,2.18,2.51,2.19,2.19,0,0,0,1.89-.39,4.42,4.42,0,0,0,1.43-1.62l.05-.1.11.05a5.71,5.71,0,0,0,1.78.52,3,3,0,0,0,1.82-.45,4.2,4.2,0,0,0,2-2.74l.06-.27.16.23a1.91,1.91,0,0,0,1.62.71,1.78,1.78,0,0,0,.85-.24,4.43,4.43,0,0,0,.66-.58,5.92,5.92,0,0,0,1.08-1.31,1.88,1.88,0,0,0,.23-1.45l0-.14.14,0a3.9,3.9,0,0,0,2.35-.45,4.31,4.31,0,0,0,1.38-1.22A4.6,4.6,0,0,0,565.45,83.86Z" style="fill:#455a64"></path><path d="M562.22,115c0-.22-1.48,0-2.69-1.13s-1.26-2.69-1.46-2.67-.24.38-.17,1a3.66,3.66,0,0,0,1.14,2.24,3.21,3.21,0,0,0,2.24.86C561.9,115.35,562.24,115.13,562.22,115Z" style="fill:#263238"></path><path d="M517.16,237.77,506.5,279S492.89,330,491.67,340.47L514,343s11.21-48.73,16.17-55.58,19.67-63.82,19.67-63.82Z" style="fill:#263238"></path><path d="M552.65,219.56s42.73,28.31,45.7,34.39,4.23,66.54,4.23,66.54l-20.79,5.24L577,270.13l-46.75-22.66s-12.49-6.45-18-13-2.8-17.3-2.8-17.3l4.7-5,41.6-3.24Z" style="fill:#263238"></path><path d="M520.47,243.23a4.84,4.84,0,0,0,.56.31l1.63.81,6,2.91,19.82,9.67c7.74,3.78,14.77,7.16,19.89,9.54,2.56,1.19,4.64,2.14,6.08,2.78l1.66.72a3.27,3.27,0,0,0,.6.23,2.63,2.63,0,0,0-.55-.31l-1.63-.81-6-2.92L548.7,256.5c-7.74-3.78-14.77-7.16-19.88-9.54-2.56-1.19-4.64-2.14-6.08-2.78l-1.67-.73A2.53,2.53,0,0,0,520.47,243.23Z" style="fill:#455a64"></path><path d="M552.87,219.75c0,.12-2.38-.8-5.28-1.82s-5.3-1.68-5.28-1.81a20.14,20.14,0,0,1,5.44,1.36A24.59,24.59,0,0,1,552.87,219.75Z" style="fill:#455a64"></path><path d="M564.77,137.1l-1.38-4.62-.87,1.05-.59-1.22-18.45-10.47-2,3.85L535,127.52a12.39,12.39,0,0,0-8.62,8.57l-5.05,28.16-.38,4.6-2.16,15.6c.51,1.09-8.58,12.2-9.22,16.4s3.31,8.11,3.31,8.11L555,216.21s2.11.52,4.26-3.25c1.87-3.28,4-26.83,4-26.83s1.3-12.65,2.54-21.19a85.58,85.58,0,0,0,.15-15.6Z" style="fill:#ebebeb"></path><path d="M540.69,125.23l2-2.63s8.06,6.87,9.69,13.25-1,33.66-2.86,41.13c-2,8.07-3.65,17.75-17.93,30.23-16.43,14.35-12.46,31.45-15.55,32.36,0,0-22.23-9.53-21.62-12.07,3-12.49,21.43-39.36,21.6-39.72l4.72-25.2,2.59-30.12h0c3.81-2.09,5.92-3.91,9.38-4.7Z" style="fill:#FF725E"></path><polygon points="539.97 151.42 517.86 177.57 519.63 168.12 539.97 151.42" style="opacity:0.30000000000000004"></polygon><path d="M545.28,188.8a3.79,3.79,0,0,1,.2-.67c.15-.48.34-1.12.59-1.91.5-1.66,1.19-4.08,1.79-7.12.3-1.52.59-3.19.78-5a53.72,53.72,0,0,0,.23-5.81c0-4.11,0-8.62.07-13.36,0-3.6.06-7.06.09-10.3v-.07l0-.05,2.41-3.73.1.31-2.16-.78-.07,0,0-.06c-2.51-4.54-4.63-8.31-6.14-10.93-.76-1.31-1.35-2.34-1.78-3-.21-.34-.39-.6-.5-.77s-.2-.25-.19-.26,1.12,1.34,2.68,3.94,3.74,6.33,6.29,10.85l-.11-.1,2.17.77.25.09-.14.23-2.39,3.74,0-.12c0,3.24,0,6.71-.06,10.3,0,4.74-.08,9.25-.11,13.37a49.31,49.31,0,0,1-.29,5.84c-.2,1.82-.51,3.5-.83,5a66,66,0,0,1-1.94,7.11c-.28.82-.51,1.45-.68,1.88A4,4,0,0,1,545.28,188.8Z" style="fill:#263238"></path><path d="M515.81,199.64s-.13.12-.38.3l-1.09.75-4,2.64,0-.31,11.79,4.73-.23,0,.08-.06,5.56-4,0,.38L519.13,201l-2.44-.95a7.92,7.92,0,0,1-.88-.39,4,4,0,0,1,.87.24l2.45.83c2.11.72,5.09,1.76,8.58,3l.4.14-.34.25c-1.72,1.23-3.59,2.58-5.54,4l-.08,0-.11.08-.12-.05-11.75-4.84-.32-.14.3-.18,4.14-2.53A11.63,11.63,0,0,1,515.81,199.64Z" style="fill:#263238"></path><path d="M565.15,140.26s-.27-.59-.85-1.52l-1.06-1.67a10.49,10.49,0,0,1-1.13-2.3l.37.09-2.33,2.54-1.74,1.89-.13.13-.16-.09c-1.78-1-3.31-1.94-4.39-2.61a9.46,9.46,0,0,1-1.68-1.13,10.92,10.92,0,0,1,1.82.88c1.12.6,2.69,1.46,4.48,2.47l-.28,0,1.74-1.89,2.35-2.53.25-.28.12.36a25.15,25.15,0,0,0,2,4A4.43,4.43,0,0,1,565.15,140.26Z" style="fill:#263238"></path><polygon points="559.27 137.99 561.03 141.02 563.64 141.27 564.34 139.04 562.26 135.01 559.27 137.99" style="fill:#455a64"></polygon><path d="M563.76,140.67,560.7,140a2.24,2.24,0,0,1-1.14,2.81A4.78,4.78,0,0,1,556,143a10.41,10.41,0,0,1-3.17-1.78c-3.56-2.7-6.31-6.11-9.39-9.24s-6.68-6.08-11.11-7.36a24.2,24.2,0,0,0-10.94-.24A35.15,35.15,0,0,0,504,132.76l-4.31,3.94-1.12,8,10.62.19s16-15.73,22.07-13,15.8,14.13,22.91,15.52A7.92,7.92,0,0,0,563.76,140.67Z" style="fill:#455a64"></path><path d="M562.37,134.87a.91.91,0,0,1,0,.21l.11.63c.08.55.19,1.37.32,2.43.24,2.11.54,5.18.8,9,.13,1.9.25,4,.35,6.22,0,1.11.11,2.27.09,3.47s-.09,2.42-.19,3.68c-.19,2.51-.49,5.14-.83,7.85s-.72,5.53-1.2,8.39c-1,5.74-2.18,11.14-3.29,16s-2.18,9.31-3.33,13-2.27,6.5-3.07,8.47c-.4,1-.72,1.75-.95,2.26L551,217a1.55,1.55,0,0,1-.1.19s0-.07.06-.21.13-.36.21-.6c.22-.56.51-1.32.87-2.29.75-2,1.83-4.86,2.92-8.5s2.15-8,3.23-13,2.3-10.29,3.24-16c.48-2.86.87-5.66,1.21-8.38s.65-5.32.86-7.82c.1-1.25.18-2.47.21-3.66s0-2.33-.07-3.45c-.09-2.23-.19-4.31-.3-6.21-.21-3.79-.46-6.86-.65-9-.09-1-.17-1.84-.23-2.44q0-.37-.06-.63C562.36,134.94,562.36,134.87,562.37,134.87Z" style="fill:#263238"></path><path d="M491.7,224.06a15.21,15.21,0,0,1-.13,3.66,42.46,42.46,0,0,1-2.86,5.51s-1.2,0-.59-3a23.54,23.54,0,0,1,1.16-4.2Z" style="fill:#ae7461"></path><path d="M470.46,245.2s1.27-18.4,5.48-20.61,10.1-3.78,11.83-1.1a32.61,32.61,0,0,1,4.4,11.1,70,70,0,0,1,.72,11.07l-4.91-.35S487.5,227,485.9,224.4s-9-.17-9.73,3.11-1.92,18-1.92,18Z" style="fill:#455a64"></path><path d="M454.45,271.7c-.07-7.56,0-24.25,0-31.59a3.73,3.73,0,0,1,3.6-3.71L503,234.89a3.72,3.72,0,0,1,3.84,3.47l2.11,31a3.73,3.73,0,0,1-3.55,4l-47.09,2.05A3.72,3.72,0,0,1,454.45,271.7Z" style="fill:#455a64"></path><path d="M487.18,232.09l4.52-7.89.77-10-11-2.38-5,8.8s-.82,4.93-.56,6.09,1.94,1.32,1.94,1.32c.11,1.55,2.37,2.23,2.37,2.23.35,1.72,2.5,1.45,2.5,1.45s.68,2,1.35,2.23a1.31,1.31,0,0,0,.88-.06A3.93,3.93,0,0,0,487.18,232.09Z" style="fill:#ae7461"></path><path d="M478.32,225.54c.11,0,.11.57,0,1.24s-.29,1.18-.4,1.16-.11-.57,0-1.23S478.21,225.53,478.32,225.54Z" style="fill:#6f4439"></path><path d="M480.92,226.8a20.87,20.87,0,0,1-.75,3.49,5,5,0,0,1,.75-3.49Z" style="fill:#6f4439"></path><path d="M483.66,228.63c.1.05-.15.7-.41,1.51s-.44,1.49-.56,1.47a2.58,2.58,0,0,1,.18-1.59C483.14,229.17,483.57,228.58,483.66,228.63Z" style="fill:#6f4439"></path><path d="M490.22,226.64a14.81,14.81,0,0,1-1.51,3.12,14.34,14.34,0,0,1-1.86,2.9,15.14,15.14,0,0,1,1.51-3.11A15.56,15.56,0,0,1,490.22,226.64Z" style="fill:#6f4439"></path><path d="M479.05,223.86c0,.06-.12.14-.35.15a1.29,1.29,0,0,1-.84-.3,1.34,1.34,0,0,1-.43-.78c0-.23,0-.37.09-.37s.19.49.6.84S479,223.75,479.05,223.86Z" style="fill:#6f4439"></path><path d="M481.74,226c0,.05-.14.11-.39.1a1.57,1.57,0,0,1-1.39-1.16c-.06-.24,0-.4,0-.4s.26.5.74.89S481.73,225.83,481.74,226Z" style="fill:#6f4439"></path><path d="M487.7,228.42c.06,0,.11.34-.3.56a2,2,0,0,1-1.51-.07,2.33,2.33,0,0,1-1.11-1c-.19-.34-.2-.58-.15-.6s.46.81,1.42,1.22a2.18,2.18,0,0,0,1.24.18C487.58,228.64,487.65,228.42,487.7,228.42Z" style="fill:#6f4439"></path><path d="M505.67,268.69a.84.84,0,0,1-.05-.27q0-.3-.09-.78c-.08-.73-.18-1.74-.31-3-.26-2.66-.62-6.45-1.06-11.13-.22-2.35-.46-4.93-.71-7.69-.13-1.38-.26-2.81-.4-4.28,0-.37-.06-.74-.1-1.11l-.05-.56a.91.91,0,0,0-.17-.42,1,1,0,0,0-.81-.4l-1.16,0-20.29.7-20.3.67a3.38,3.38,0,0,0-1.07.11,1,1,0,0,0-.55.72c0,.69,0,1.49-.06,2.21,0,1.48-.07,2.92-.1,4.31-.07,2.77-.14,5.35-.2,7.72-.13,4.69-.23,8.5-.31,11.17,0,1.3-.08,2.31-.1,3,0,.33,0,.59,0,.79l0,.27a.8.8,0,0,1,0-.27c0-.21,0-.47,0-.79,0-.73,0-1.75,0-3,0-2.68.09-6.49.16-11.18,0-2.37.09-5,.14-7.72,0-1.39.05-2.83.07-4.3,0-.76,0-1.46.06-2.28a1.41,1.41,0,0,1,.79-1,1.54,1.54,0,0,1,.65-.13l.58,0,20.3-.71,20.29-.67,1.17,0a1.35,1.35,0,0,1,1.16.58,1.3,1.3,0,0,1,.25.62l.05.57c0,.37.07.74.1,1.11.12,1.47.25,2.9.37,4.29.23,2.76.45,5.34.65,7.69.38,4.68.69,8.48.91,11.15.09,1.29.17,2.3.22,3l.05.79A.92.92,0,0,1,505.67,268.69Z" style="fill:#263238"></path><rect x="475.48" y="244.44" width="11.52" height="2.91" rx="0.52" transform="translate(-6.61 13.39) rotate(-1.58)" style="fill:#263238"></rect><path d="M535.35,155.11,506,179.25l-10.81,36.91-16-3.48,9.47-36.44a37.18,37.18,0,0,1,8.32-15.5l22.72-25.3a15.37,15.37,0,0,1,12.44-5.5,11,11,0,0,1,7.24,3.58c3.64,4.76,2.75,10.5,2.43,12.25" style="fill:#FF725E"></path><path d="M541.75,145.77a14.19,14.19,0,0,0,.33-2.19,16.13,16.13,0,0,0-.67-6.29,13,13,0,0,0-2.17-4,10.59,10.59,0,0,0-4.61-2.91,12,12,0,0,0-6.25-.27A15.57,15.57,0,0,0,522,133a18.85,18.85,0,0,0-2.74,2.63l-2.64,2.94L511,144.78l-12.35,13.73c-1.08,1.21-2.22,2.41-3.27,3.72a36.31,36.31,0,0,0-2.89,4.17,37.45,37.45,0,0,0-4.07,9.63c-1.78,6.85-3.63,13.95-5.52,21.21-1.35,5.23-2.69,10.37-4,15.38l-.06.24.24,0,16,3.48.21,0,.06-.2c4-13.85,7.69-26.39,10.77-36.93l-.06.09,21.43-17.7c2.52-2.1,4.49-3.73,5.83-4.86l1.52-1.27.5-.45s-.19.13-.54.41l-1.54,1.23-5.9,4.78-21.53,17.58,0,0,0,0c-3.1,10.53-6.79,23.06-10.86,36.9l.27-.16-16-3.49.18.29c1.3-5,2.64-10.15,4-15.38,1.89-7.26,3.73-14.36,5.51-21.21a37.33,37.33,0,0,1,6.85-13.64c1-1.29,2.17-2.49,3.25-3.71L511.29,145l5.59-6.24,2.63-2.94a18.23,18.23,0,0,1,2.68-2.6,15.14,15.14,0,0,1,6.25-2.9,11.72,11.72,0,0,1,6.11.22,10.51,10.51,0,0,1,4.51,2.81,12.57,12.57,0,0,1,2.17,4,16.33,16.33,0,0,1,.75,6.23c0,.72-.11,1.27-.16,1.63S541.75,145.77,541.75,145.77Z" style="fill:#263238"></path></g><g id="freepik--character-2--inject-25"><path d="M291,305.83c1.64,1.19,48.7,27.39,48.7,27.39S330,349.91,324.2,363.61s-7.26,20.49-7.26,20.49,13.92,9,13.64,7.75,36.2-52.24,37.09-61.53-18.53-27.06-18.53-27.06l-19.75-18.05,2.22-7.67s-36-19.39-37.29-19.1L288,269.19S274.37,293.77,291,305.83Z" style="fill:#263238"></path><path d="M290.88,289.94c-2.24,1.24-18.64,51.05-18.64,51.05-10.85,11.19-29.77,50.49-29.77,50.49.75,1,15.71,11.21,15.71,11.21l35-48.82a25,25,0,0,0,4.85-8.22l23.19-37.77Z" style="fill:#263238"></path><path d="M322.34,323.33a9.93,9.93,0,0,1-1.54-.68l-4.11-2c-3.44-1.78-8.19-4.26-13.28-7.26A133.51,133.51,0,0,1,290.76,305a42.51,42.51,0,0,1-3.51-3,5.7,5.7,0,0,1-1.12-1.26,2.06,2.06,0,0,1,.33.28c.21.2.51.48.92.83.82.71,2,1.68,3.6,2.82,3.12,2.27,7.61,5.18,12.69,8.17s9.8,5.52,13.19,7.38l4,2.18A10.72,10.72,0,0,1,322.34,323.33Z" style="fill:#455a64"></path><path d="M348.91,329.53c0,.15-2.19.57-4.76,1.56s-4.51,2.14-4.59,2a12.54,12.54,0,0,1,4.4-2.5A12.8,12.8,0,0,1,348.91,329.53Z" style="fill:#455a64"></path><path d="M332,384.59,327.47,393s17,3.63,17.62,6.59l-31.19,4.53L312.83,397l5.1-16.55Z" style="fill:#263238"></path><g style="opacity:0.6000000000000001"><path d="M313.9,404.16l-.28-2.54,30-3.4s1.47.41,1.46,1.41Z" style="fill:#455a64"></path></g><path d="M328,392.8c0,.16-.73.34-1.41.94s-1,1.29-1.13,1.25-.05-.95.78-1.66S328,392.66,328,392.8Z" style="fill:#fff"></path><path d="M331.42,393.68c.06.14-.57.5-1,1.22s-.47,1.42-.63,1.44-.37-.84.17-1.72S331.4,393.54,331.42,393.68Z" style="fill:#fff"></path><path d="M333.85,397.33c-.14.05-.46-.68-.19-1.57s.93-1.33,1-1.21-.3.63-.51,1.36S334,397.29,333.85,397.33Z" style="fill:#fff"></path><path d="M327.14,389.17c0,.15-.77,0-1.62.22s-1.49.55-1.58.44.46-.76,1.47-1S327.2,389,327.14,389.17Z" style="fill:#263238"></path><path d="M264.64,390.46l-9.12,13.44s10.61,13.79,9.17,16.43L238,403.59l13.35-21.53Z" style="fill:#263238"></path><g style="opacity:0.6000000000000001"><path d="M238,403.59l1.43-2.11,25.07,16.84s.86,1.26.21,2Z" style="fill:#455a64"></path></g><path d="M256,404c-.08.13-.77-.22-1.68-.21s-1.59.36-1.68.23.58-.76,1.68-.76S256.14,403.94,256,404Z" style="fill:#fff"></path><path d="M258.12,407c-.05.15-.76,0-1.55.29s-1.28.78-1.4.69.25-.88,1.24-1.2S258.19,406.83,258.12,407Z" style="fill:#fff"></path><path d="M257.61,411.3c-.14,0,.09-.81.87-1.31s1.57-.41,1.56-.27-.63.29-1.27.72S257.74,411.37,257.61,411.3Z" style="fill:#fff"></path><path d="M257.78,400.74c-.13.09-.62-.47-1.38-.88s-1.49-.54-1.49-.69.85-.27,1.74.22S257.91,400.68,257.78,400.74Z" style="fill:#263238"></path><path d="M316.32,275.47a65.68,65.68,0,0,1,6.69,4.66,64.22,64.22,0,0,1,6.38,5.08,63.78,63.78,0,0,1-6.69-4.66A62.55,62.55,0,0,1,316.32,275.47Z" style="fill:#455a64"></path><path d="M315.94,386.93a59.45,59.45,0,0,1,7.4,2.22,60.52,60.52,0,0,1,7.24,2.7,56.25,56.25,0,0,1-7.41-2.21A56.27,56.27,0,0,1,315.94,386.93Z" style="fill:#455a64"></path><path d="M258.18,402.69a92.06,92.06,0,0,1-8-5.4,86.47,86.47,0,0,1-7.7-5.81,90.46,90.46,0,0,1,8,5.39A89,89,0,0,1,258.18,402.69Z" style="fill:#455a64"></path><path d="M323.73,154.53c0,.05-.41.27-1.09.81a22.47,22.47,0,0,0-2.7,2.53c-1.07,1.14-2.28,2.57-3.8,4a16.82,16.82,0,0,1-2.58,2.07,22.22,22.22,0,0,1-3.15,1.62,61.49,61.49,0,0,0-6.17,2.7,30.4,30.4,0,0,0-4.52,3.09,23.09,23.09,0,0,0-3.43,3.71,4.61,4.61,0,0,1,.68-1.2,16.6,16.6,0,0,1,2.51-2.78,27.42,27.42,0,0,1,4.52-3.23,56,56,0,0,1,6.2-2.77c4.55-1.68,7.24-5.31,9.48-7.49a18.9,18.9,0,0,1,2.84-2.44,6.8,6.8,0,0,1,.88-.51C323.61,154.56,323.72,154.51,323.73,154.53Z" style="fill:#263238"></path><path d="M320.86,192.56c9.82-7.93,8.32-22.4,18.14-30.34l1.34-1.29c.6-4.47-5.4-8-9.17-8.49a11.72,11.72,0,0,0-9.37,3.34c-2.41,2.2-4.21,5-6.47,7.32-5.43,5.66-13.59,9-16.55,16.51l9,7.52L313,183.2l-2.74,4.73Z" style="fill:#263238"></path><path d="M327,161a15.17,15.17,0,0,1,1.84-4.27,5.13,5.13,0,0,1,3.84-2.36,2.15,2.15,0,0,1,1.93.82A1.16,1.16,0,0,1,334,157l-.12.16q-1.89,2.66-3.87,5.24a4.34,4.34,0,0,1-1.15,1.15,1.49,1.49,0,0,1-1.56,0C326.59,163,326.77,161.9,327,161Z" style="fill:#455a64"></path><path d="M330.57,157.91a21.73,21.73,0,0,1,17.57-6.67c3.81.31,5.31,1.26,8,2.27a12.09,12.09,0,0,1,6.4,5.21,20.25,20.25,0,0,1,3,9.58,56.56,56.56,0,0,1-.53,10.41,19.08,19.08,0,0,1-4.2,9.4l-8.93.66c-4.87-.32-9.8-.65-14.42-2.22s-8.95-4.58-11.07-9C323.43,171.48,325.78,162.7,330.57,157.91Z" style="fill:#263238"></path><path d="M338.39,158.63l12.17-3.49,3,.66c6.88.71,10.87,8.77,10.37,14.35-.57,6.19-1.5,13.74-2.94,18.2-2.89,9-10.8,9-10.8,9l-.65,4-1.11,8.16-6.64,5.74-16.22-2.73,5.9-12.59L335,161.46A3.28,3.28,0,0,1,338.39,158.63Z" style="fill:#ffbf9d"></path><path d="M347.45,184.84a2,2,0,0,1,3.24-1,2.68,2.68,0,0,1,.76,2.61h0a2.42,2.42,0,0,1-1.84.84l-.33,0a2.23,2.23,0,0,1-1.41-.73A2,2,0,0,1,347.45,184.84Z" style="fill:#ff9a6c"></path><path d="M360.31,177.31a1.19,1.19,0,0,1-1.33,1,1.14,1.14,0,0,1-1.05-1.25,1.19,1.19,0,0,1,1.32-1A1.14,1.14,0,0,1,360.31,177.31Z" style="fill:#263238"></path><path d="M361.54,173c-.17.13-1-.67-2.23-.86s-2.3.3-2.42.12.14-.33.59-.57a3.26,3.26,0,0,1,2-.28,3.11,3.11,0,0,1,1.75.88C361.53,172.68,361.62,173,361.54,173Z" style="fill:#263238"></path><path d="M352.33,182.24a8.51,8.51,0,0,1,2.12-.05c.33,0,.65,0,.74-.22a1.67,1.67,0,0,0-.07-1l-.57-2.62a43.27,43.27,0,0,1-1.16-6.8,43.16,43.16,0,0,1,1.7,6.69c.19.92.37,1.79.53,2.63a1.88,1.88,0,0,1,0,1.3.82.82,0,0,1-.61.39,2,2,0,0,1-.56,0A8.76,8.76,0,0,1,352.33,182.24Z" style="fill:#263238"></path><path d="M350.22,197.31a23.71,23.71,0,0,1-11.82-5.2s2.1,6.88,11.45,7.45Z" style="fill:#ff9a6c"></path><path d="M348.46,182.54c.21,0,0,1.4,1,2.56s2.52,1.24,2.5,1.43-.36.22-1,.14a3.47,3.47,0,0,1-2.1-1.12,3,3,0,0,1-.77-2.13C348.16,182.83,348.36,182.52,348.46,182.54Z" style="fill:#263238"></path><path d="M361.55,168.52c-.26.27-1.2-.09-2.35-.17s-2.14.07-2.35-.24.08-.44.52-.69a3.47,3.47,0,0,1,1.95-.37,3.43,3.43,0,0,1,1.84.7C361.55,168.07,361.67,168.38,361.55,168.52Z" style="fill:#263238"></path><path d="M346.29,175.87a1.18,1.18,0,0,0,1,1.33,1.15,1.15,0,0,0,1.35-.92,1.21,1.21,0,0,0-1-1.34A1.15,1.15,0,0,0,346.29,175.87Z" style="fill:#263238"></path><path d="M344.3,170.82c.13.17,1.1-.39,2.38-.23s2.14.9,2.3.76-.05-.36-.42-.71a3.31,3.31,0,0,0-1.81-.8,3.17,3.17,0,0,0-1.92.38C344.4,170.48,344.23,170.74,344.3,170.82Z" style="fill:#263238"></path><path d="M345.47,166.8c.22.32,1.24.14,2.43.26s2.16.45,2.43.18,0-.45-.41-.77a3.62,3.62,0,0,0-1.92-.71,3.66,3.66,0,0,0-2,.36C345.55,166.37,345.38,166.65,345.47,166.8Z" style="fill:#263238"></path><path d="M335,177.18c.1-.68-.44-2.42-1.1-2.63-1.77-.57-5.05-.93-5.79,3.66-1,6.27,5.49,6,5.53,5.82S334.66,179.55,335,177.18Z" style="fill:#ffbf9d"></path><path d="M332.31,181.46s-.12.06-.32.11a1.1,1.1,0,0,1-.82-.11,2.76,2.76,0,0,1-.86-2.63,3.84,3.84,0,0,1,.56-1.52,1.29,1.29,0,0,1,1-.7.57.57,0,0,1,.6.4c.05.19,0,.31,0,.33s.15-.09.15-.35a.76.76,0,0,0-.19-.44.84.84,0,0,0-.58-.25,1.54,1.54,0,0,0-1.3.78,4,4,0,0,0-.66,1.69,2.88,2.88,0,0,0,1.16,3,1.18,1.18,0,0,0,1,0C332.27,181.61,332.33,181.47,332.31,181.46Z" style="fill:#ff9a6c"></path><path d="M333.67,174.54l1.44,1.82c7.58-5.94,22.76-21.19,21.91-20.27a20.19,20.19,0,0,0-9.79-2.06c-5.23.36-15.26,2-15.71,8.06S333.67,174.54,333.67,174.54Z" style="fill:#263238"></path><path d="M327.78,180a2.71,2.71,0,0,1-.44-.58,16.51,16.51,0,0,1-1-1.69,9.76,9.76,0,0,1-1-2.79,20.77,20.77,0,0,1-.39-3.59,15.21,15.21,0,0,1,1.25-6.42,14.44,14.44,0,0,1,.87-1.79,2.75,2.75,0,0,1,.41-.6c.06,0-.44.94-1,2.49a16.47,16.47,0,0,0-1.11,6.3,14.94,14.94,0,0,0,1.24,6.27C327.29,179.07,327.85,180,327.78,180Z" style="fill:#455a64"></path><path d="M390.61,283c.22.15,2.7,1.94,3.73,1.69a2.15,2.15,0,0,0,1.35-1.44,3.44,3.44,0,0,0,2.16-.68,3.67,3.67,0,0,0,.93-2.09l.87-.55c1.26-.8,1.16-1.75,1.16-1.75A3.7,3.7,0,0,1,401,276c.48-1-1.76-3.54-2.78-4.85s-2.36-3.08-4.94-2.64c-3.47.58-9.13,1.34-9.13,1.34l-2.73,7.2s-.38,1.82,2.55,3.29A56.6,56.6,0,0,0,390.61,283Z" style="fill:#ffbf9d"></path><path d="M398,280a14.83,14.83,0,0,1-3-1.61c-.44-.31-.86-.63-1.32-.9a3.36,3.36,0,0,0-1.5-.48,1.88,1.88,0,0,0-1.45.55,1.31,1.31,0,0,0-.19,1.48,1.19,1.19,0,0,0-1.37.68,1.86,1.86,0,0,0,.09,1.61,4.68,4.68,0,0,0,1.07,1.28,10.93,10.93,0,0,0,2,1.47,3.21,3.21,0,0,0,2.05.5,1.52,1.52,0,0,0,1.33-1.43,2.28,2.28,0,0,0,1.58-.55" style="fill:#ffbf9d"></path><path d="M395.69,283.25a8.41,8.41,0,0,0-1.32-1.25c-.84-.73-2-1.72-3.34-2.8l-.49-.39c-.06,0-.05-.05-.16-.12a.52.52,0,0,0-.24-.05.72.72,0,0,0-.37.14,2.61,2.61,0,0,0-.76,1,1.56,1.56,0,0,0-.13,1.13,2.7,2.7,0,0,0,.41.87,5.08,5.08,0,0,0,.91,1c.24.2.4.28.41.26a17.35,17.35,0,0,1-1.1-1.4,1.65,1.65,0,0,1-.19-1.68,2.36,2.36,0,0,1,.65-.83.3.3,0,0,1,.19-.07c.06,0,0,0,.14.08l.49.4c1.32,1.08,2.53,2,3.41,2.71A8.4,8.4,0,0,0,395.69,283.25Z" style="fill:#ff9a6c"></path><path d="M398.78,280.48a6.06,6.06,0,0,0-1.23-.89c-.79-.5-1.9-1.18-3.13-1.92l0,0-.13-.1a4.11,4.11,0,0,0-1.95-.91,1.81,1.81,0,0,0-1.65.65,2.17,2.17,0,0,0-.43,1.11c0,.28,0,.43,0,.43s.05-.14.12-.4a2.3,2.3,0,0,1,.49-1,1.5,1.5,0,0,1,1.39-.48,3.91,3.91,0,0,1,1.76.86l.11.09h0c1.24.73,2.37,1.37,3.19,1.82A6.12,6.12,0,0,0,398.78,280.48Z" style="fill:#ff9a6c"></path><path d="M400.81,278.18a13.16,13.16,0,0,0-2.14-.76l.05,0c-.9-.81-2.14-1.88-3.51-3.05-.31-.25-.6-.5-.89-.75l-.06,0h-.08a3.43,3.43,0,0,0-1.2.37,1.76,1.76,0,0,0-.82.86,1.32,1.32,0,0,0,0,1.07,2.92,2.92,0,0,0,.53.72,4.92,4.92,0,0,0,1,.76c.24.15.39.22.4.2s-.51-.38-1.18-1.13c-.31-.36-.72-.93-.44-1.5a2.14,2.14,0,0,1,1.74-1l-.13,0,.88.75c1.37,1.17,2.63,2.21,3.58,3l0,0h0A11.21,11.21,0,0,0,400.81,278.18Z" style="fill:#ff9a6c"></path><path d="M334.71,227.3c.16,4.13,11.09,33,14.08,38.43s33.36,14.66,33.36,14.66l6-11.63-27.44-14-4.3-36.51a5.23,5.23,0,0,0-2.66-4c-4.47-2.5-14-7.22-16.44-3.85C332.53,216.9,334.71,227.3,334.71,227.3Z" style="fill:#e0e0e0"></path><path d="M330.72,280.05,293.47,259.9c.24-1.64.63-2.73,1.78-2.93l8.3-10.94,4.16-25.16,12-24.75,9,.28,3.48-3.43L348,207.8l1.3-4.21,1.76,5.63,4.19,6c.74,1.13.39,2.33.27,3.91l-.53,4.34c-.4,9-.73,17.89-3.05,22.95-1.14,2.5-7.13,10.53-7.13,10.53l-8.55,12.76-3.07,5.61C333.94,279.26,332.69,279.13,330.72,280.05Z" style="fill:#e0e0e0"></path><g style="opacity:0.30000000000000004"><path d="M348.54,211.71c-2.84,6.59-5.9,13.46-11.59,17.85-4.08,3.15-9.15,4.7-14.12,6.1-5.76,1.62-12.19,3.05-18.14,2.44L303.55,246c5.82-1.81,12.45-2.09,18.27-3.86,8.06-2.44,12.65-4.18,18.37-10a33.09,33.09,0,0,0,9.57-20C349.08,212,349.22,211.89,348.54,211.71Z"></path></g><path d="M354.94,223.49a2.27,2.27,0,0,1,.06.59c0,.44,0,1,.07,1.69.07,1.46.09,3.59,0,6.21a52.92,52.92,0,0,1-1.06,9.17,27.09,27.09,0,0,1-4.49,10.36c-1.45,2.07-3.08,3.89-4.56,5.63l0,0c-3.35,5.23-6.27,9.79-8.4,13.1l-2.49,3.8-.68,1a1.44,1.44,0,0,1-.26.33s.05-.13.18-.38l.62-1c.58-1,1.38-2.27,2.36-3.88l8.25-13.2h0l0,0c1.47-1.74,3.09-3.56,4.52-5.6a25.41,25.41,0,0,0,2.82-5c.39-.85.64-1.74.95-2.58s.51-1.71.67-2.55a54.85,54.85,0,0,0,1.16-9.09c.15-2.61.18-4.73.18-6.19,0-.69,0-1.25,0-1.69A2.52,2.52,0,0,1,354.94,223.49Z" style="fill:#263238"></path><path d="M272.34,271.11a14.69,14.69,0,0,1,.45,3.44,40.79,40.79,0,0,1-1.81,5.6s-1.14.16-1-2.7a22.18,22.18,0,0,1,.43-4.11Z" style="fill:#ffbf9d"></path><path d="M269.37,279.33l3-8.09-.84-9.48-10.61-.51-3.27,9s0,4.74.42,5.78,2,.93,2,.93c.35,1.44,2.56,1.72,2.56,1.72.6,1.55,2.57,1,2.57,1s.94,1.75,1.61,1.88a1.3,1.3,0,0,0,.81-.19A3.72,3.72,0,0,0,269.37,279.33Z" style="fill:#ffbf9d"></path><path d="M260.05,274.59c.11,0,.19.51.19,1.15s-.09,1.15-.2,1.15-.18-.52-.18-1.15S260,274.59,260.05,274.59Z" style="fill:#ff9a6c"></path><path d="M262.68,275.36a5.37,5.37,0,0,1,0,1.69,6.23,6.23,0,0,1-.15,1.69,3.08,3.08,0,0,1-.24-1.7A3.12,3.12,0,0,1,262.68,275.36Z" style="fill:#ff9a6c"></path><path d="M265.53,276.64c.11,0,0,.68-.15,1.48a4.76,4.76,0,0,1-.28,1.46c-.11,0-.22-.68-.09-1.52A2.45,2.45,0,0,1,265.53,276.64Z" style="fill:#ff9a6c"></path><path d="M271.36,273.76a14.41,14.41,0,0,1-.93,3.15,15,15,0,0,1-1.28,3,13.88,13.88,0,0,1,.92-3.15A14.34,14.34,0,0,1,271.36,273.76Z" style="fill:#ff9a6c"></path><path d="M260.47,272.9c0,.05-.08.14-.3.19a1.15,1.15,0,0,1-.83-.15,1.21,1.21,0,0,1-.52-.66c-.06-.21,0-.35,0-.36s.26.43.7.69S260.44,272.8,260.47,272.9Z" style="fill:#ff9a6c"></path><path d="M263.31,274.43c0,.05-.11.13-.34.16a1.52,1.52,0,0,1-1.48-.87c-.09-.22-.08-.37,0-.38s.32.43.83.72S263.29,274.33,263.31,274.43Z" style="fill:#ff9a6c"></path><path d="M269.28,275.82c.05,0,.16.3-.2.57a1.84,1.84,0,0,1-1.42.16,2.16,2.16,0,0,1-1.19-.75c-.23-.28-.28-.51-.24-.53s.56.68,1.52.91a2,2,0,0,0,1.19,0C269.2,276,269.23,275.82,269.28,275.82Z" style="fill:#ff9a6c"></path><path d="M302.77,201.17c-3.86,1.18-30.86,15.56-34.29,20.55-4.84,7.07-9.16,39.42-9.16,39.42l11.89,3.14,8.62-32.82L312.6,219s13.86-20.55,8.84-22.53C314.12,193.63,302.77,201.17,302.77,201.17Z" style="fill:#e0e0e0"></path><path d="M312.94,218.85a7.74,7.74,0,0,1-1.24.63c-.82.37-2,.88-3.49,1.51-3,1.24-7.08,2.88-11.66,4.59s-8.76,3.2-11.79,4.26l-3.59,1.23a8,8,0,0,1-1.34.39,6.62,6.62,0,0,1,1.27-.58c.83-.34,2-.82,3.54-1.39l11.73-4.4,11.7-4.45,3.55-1.35A7.12,7.12,0,0,1,312.94,218.85Z" style="fill:#263238"></path><path d="M320,208.86a15,15,0,0,0,.33-5.35,15.22,15.22,0,0,0-2-5s.53.37,1.11,1.21a9.48,9.48,0,0,1,1.26,7.62A3.72,3.72,0,0,1,320,208.86Z" style="fill:#263238"></path><polygon points="344.92 212.02 346.04 213.57 349.29 213.89 349.76 212.16 347.78 208.1 344.92 212.02" style="fill:#FF725E"></polygon><g style="opacity:0.30000000000000004"><path d="M329.43,197.9a90.25,90.25,0,0,0,9.43,13.67c.93,1.11,2,2.27,3.44,2.47a3.94,3.94,0,0,0,3.45-1.56,8.7,8.7,0,0,0,1.57-3.6c-.93,1.53-2.29,3.29-4.07,3a4.53,4.53,0,0,1-2.33-1.52q-6-6-11.46-12.48"></path></g><path d="M351,209.22s.09.32-.07.86a9.27,9.27,0,0,1-.35,1,4.26,4.26,0,0,1-.73,1.22l-.12.13-.1-.17c-.68-1.12-1-2.74-1.87-4.32h.37c-.36.64-.74,1.31-1.16,2a9.76,9.76,0,0,1-1.53,2.07,2.66,2.66,0,0,1-2.77.38,3.65,3.65,0,0,1-1.15-.92c-.32-.34-.64-.69-1-1-3.46-3.66-6.46-7.1-8.58-9.63-1.06-1.27-1.89-2.31-2.46-3a7.26,7.26,0,0,1-.84-1.17,7.66,7.66,0,0,1,1,1l2.59,2.92c2.19,2.47,5.22,5.86,8.68,9.51.32.35.65.69,1,1a3.16,3.16,0,0,0,1,.81,2.14,2.14,0,0,0,2.24-.3,9.88,9.88,0,0,0,1.45-1.92c.42-.68.82-1.34,1.18-2l.21-.35.17.34c.85,1.72,1.15,3.3,1.75,4.39l-.22,0a4.34,4.34,0,0,0,.71-1.09c.18-.35.31-.67.41-.92A4.78,4.78,0,0,0,351,209.22Z" style="fill:#263238"></path><path d="M345.84,213.42a24.42,24.42,0,0,1-15.33,15.42c-9.06,3-19.07.4-28.43,2.27-7,1.4-14.64,5.49-19.06,11l-3.77,9.55,10.64,1.64A8,8,0,0,0,292,251.6a31.93,31.93,0,0,1,7.36-5.67c6.46-3.63,13.93-4.91,21.13-6.68s14.59-4.29,19.67-9.7a43,43,0,0,0,9.17-15.66Z" style="fill:#FF725E"></path><path d="M343.66,251.81c0,.14-7.56,2-17,4.11s-17,3.73-17.08,3.59,7.57-2,17-4.1S343.63,251.67,343.66,251.81Z" style="fill:#263238"></path><path d="M345.37,229.52a1.9,1.9,0,0,1-.1.51q-.16.58-.39,1.44c-.35,1.26-.92,3.05-1.7,5.24s-1.8,4.76-3.05,7.56-2.78,5.82-4.53,8.91-3.6,5.91-5.36,8.43-3.47,4.7-5,6.48-2.74,3.19-3.65,4.12l-1,1.07c-.24.24-.37.36-.39.35a2.47,2.47,0,0,1,.31-.42l1-1.14c.86-1,2.06-2.41,3.51-4.21s3.1-4,4.85-6.52,3.55-5.36,5.31-8.42,3.25-6.07,4.55-8.85,2.33-5.32,3.14-7.49,1.44-3.93,1.84-5.17c.2-.56.36-1,.49-1.41A1.58,1.58,0,0,1,345.37,229.52Z" style="fill:#263238"></path><path d="M396.94,270s.24.21.56.66a14.42,14.42,0,0,1,1.19,2,16.26,16.26,0,0,1,1.16,3.31,2.17,2.17,0,0,1,.06,1.12,1,1,0,0,1-1.1.66,2.5,2.5,0,0,1-1.11-.46c-.31-.21-.61-.44-.91-.69a10.67,10.67,0,0,1-1.54-1.63c-.43-.56-.9-.95-1.49-.87s-1.21.31-1.8.37a8.6,8.6,0,0,1-1.66.06,7.71,7.71,0,0,1-2.32-.5,2.11,2.11,0,0,1-.77-.4,15.09,15.09,0,0,0,3.11.53,8.83,8.83,0,0,0,1.57-.12c.57-.07,1.1-.3,1.82-.41a1.67,1.67,0,0,1,1.12.24,3.72,3.72,0,0,1,.81.77,10.42,10.42,0,0,0,1.49,1.56,4.22,4.22,0,0,0,1.74,1,.48.48,0,0,0,.56-.3,1.61,1.61,0,0,0-.05-.86,17.56,17.56,0,0,0-1-3.27C397.58,271,396.87,270,396.94,270Z" style="fill:#ff9a6c"></path><g style="opacity:0.30000000000000004"><path d="M344.92,257.66a19.4,19.4,0,0,0,9.42-23.79,31.52,31.52,0,0,1-10.09,23.38"></path></g><g style="opacity:0.30000000000000004"><path d="M307.49,221.2a10.25,10.25,0,0,0,10.05-3.11.62.62,0,0,0,.2-.39.44.44,0,0,0-.41-.38,1.24,1.24,0,0,0-.59.13l-7.81,3"></path></g></g><g id="freepik--character-1--inject-25"><path d="M77.2,437.16l-5.62,10.33L71.21,449s16.22,10.28,15.73,13.57l-34-7.24,1.62-7.83,8.7-17.24Z" style="fill:#263238"></path><path d="M61,445.25a1.42,1.42,0,0,0-1.3,1.38,1.36,1.36,0,0,0,1.36,1.3,1.51,1.51,0,0,0,1.37-1.47,1.43,1.43,0,0,0-1.57-1.2" style="fill:#e0e0e0"></path><path d="M52.9,455.29l.68-2.74,32.38,8s1.38,1,1,2Z" style="fill:#455a64"></path><path d="M71.8,448.91c0,.16-.89.06-1.82.42s-1.52,1-1.66.87.32-1,1.45-1.42S71.87,448.76,71.8,448.91Z" style="fill:#fff"></path><path d="M75.06,451.14c0,.17-.78.3-1.49.88s-1,1.3-1.2,1.25-.07-1,.83-1.71S75.09,451,75.06,451.14Z" style="fill:#fff"></path><path d="M76.17,455.85c-.15,0-.21-.88.41-1.7s1.48-1,1.52-.86-.55.54-1,1.22S76.34,455.87,76.17,455.85Z" style="fill:#fff"></path><path d="M175.48,416.59l-.86,11.73.27,1.49s19,2.68,19.92,5.89l-34,7.42-1.75-7.8.82-19.29Z" style="fill:#263238"></path><path d="M164.05,430.63a1.43,1.43,0,0,0-.61,1.8,1.36,1.36,0,0,0,1.77.62,1.5,1.5,0,0,0,.64-1.9,1.42,1.42,0,0,0-1.92-.45" style="fill:#e0e0e0"></path><path d="M160.81,443.12l-.51-2.77,32.79-6.09s1.66.33,1.72,1.44Z" style="fill:#455a64"></path><path d="M175.4,429.52c0,.16-.78.42-1.48,1.13s-1,1.51-1.15,1.48-.13-1.05.73-1.9S175.4,429.36,175.4,429.52Z" style="fill:#fff"></path><path d="M179.29,430.21c.07.16-.59.6-1,1.42s-.41,1.61-.57,1.63-.48-.88.05-1.9S179.25,430.06,179.29,430.21Z" style="fill:#fff"></path><path d="M182.25,434c-.15.07-.56-.71-.33-1.71s.92-1.54,1-1.41-.27.71-.44,1.54S182.41,434,182.25,434Z" style="fill:#fff"></path><path d="M92.93,331.79,77.42,379.47S58,431.56,54.54,441.82l22,7.31s16.52-50.23,23-56.09,33.34-60.19,33.34-60.19Z" style="fill:#263238"></path><path d="M130.42,321.45s42.85,30.86,45.68,37.24,1.69,68.67,1.69,68.67l-21.62,4.57-2.73-57.44-47.23-25.2s-19.82,8.88-19,.13c1.1-12-.45-11.5-2.41-20.16-3.48-15.35,6.41-26.74,6.41-26.74l3.62-2.25L134,310.67Z" style="fill:#263238"></path><path d="M129.77,323.31a9,9,0,0,1-.24,1.52c-.18,1-.47,2.37-.85,4.1-.77,3.45-1.88,8.21-3.37,13.4a137.48,137.48,0,0,1-4.41,13.09c-.66,1.64-1.23,3-1.65,3.85a7.56,7.56,0,0,1-.7,1.37,9.18,9.18,0,0,1,.51-1.45c.37-.91.88-2.25,1.49-3.9,1.23-3.31,2.78-7.93,4.26-13.11s2.65-9.91,3.51-13.33l1-4.06A8.52,8.52,0,0,1,129.77,323.31Z" style="fill:#455a64"></path><path d="M162.27,364.62c.1.12-2.28,2-4.67,4.87s-3.88,5.51-4,5.43a6.31,6.31,0,0,1,.84-1.82,27.52,27.52,0,0,1,2.78-4,27,27,0,0,1,3.43-3.4A6,6,0,0,1,162.27,364.62Z" style="fill:#455a64"></path><path d="M196.47,299.62c.29.05,3.68.76,4.62,0a2.41,2.41,0,0,0,.74-2.11,3.9,3.9,0,0,0,1.93-1.69,4.17,4.17,0,0,0,0-2.58l.65-1a2.26,2.26,0,0,0,.39-2.34,4.19,4.19,0,0,1-.87-2.38c0-1.25-3.44-2.85-5.1-3.73s-3.85-2.11-6.32-.47c-3.32,2.19-8.83,5.57-8.83,5.57l.57,10.45s1.26,1.41,5,1.59A18.27,18.27,0,0,0,196.47,299.62Z" style="fill:#ffbf9d"></path><path d="M202.73,293.16a16.66,16.66,0,0,1-3.86-.28,17.74,17.74,0,0,0-1.77-.32,3.59,3.59,0,0,0-1.78.19,2.09,2.09,0,0,0-1.24,1.23,1.48,1.48,0,0,0,.48,1.62,1.34,1.34,0,0,0-1.11,1.32,2.13,2.13,0,0,0,.84,1.63,5.28,5.28,0,0,0,1.68.83,11.72,11.72,0,0,0,2.73.61,3.65,3.65,0,0,0,2.35-.41,1.74,1.74,0,0,0,.72-2.1,2.53,2.53,0,0,0,1.38-1.29" style="fill:#ffbf9d"></path><path d="M195.2,291.49a1.79,1.79,0,0,1-.51-2,2.43,2.43,0,0,1,2.14-1.12,17.56,17.56,0,0,1,5.95.94l.77.84a4.67,4.67,0,0,1,.08,1.34,1.51,1.51,0,0,1-.67,1.12,2.29,2.29,0,0,1-1.25.2,18.31,18.31,0,0,1-3.92-.31A6.75,6.75,0,0,1,195.2,291.49Z" style="fill:#ffbf9d"></path><path d="M201.83,297.54a10.11,10.11,0,0,0-1.93-.68c-1.21-.37-2.89-.86-4.74-1.36l-.69-.19a1,1,0,0,0-.22-.05.53.53,0,0,0-.26.06.83.83,0,0,0-.33.31,3,3,0,0,0-.34,1.36,1.78,1.78,0,0,0,.38,1.23,3.14,3.14,0,0,0,.82.71,5.52,5.52,0,0,0,1.4.6,1.27,1.27,0,0,0,.55.09c0-.07-.76-.27-1.78-.95a1.89,1.89,0,0,1-1-1.65,2.77,2.77,0,0,1,.3-1.16.6.6,0,0,1,.16-.16c.07,0,0,0,.19,0l.69.19c1.85.51,3.54.94,4.77,1.24A9.66,9.66,0,0,0,201.83,297.54Z" style="fill:#ff9a6c"></path><path d="M203.76,293.27a6.56,6.56,0,0,0-1.68-.35c-1.05-.17-2.5-.37-4.12-.56h0l-.18-.05a4.57,4.57,0,0,0-2.43,0A2,2,0,0,0,194,293.7a2.59,2.59,0,0,0,.07,1.35c.1.3.2.44.23.43s0-.18-.07-.47a2.75,2.75,0,0,1,.06-1.22,1.74,1.74,0,0,1,1.23-1.13,4.51,4.51,0,0,1,2.21.07l.16,0h0c1.62.19,3.08.34,4.13.42A7.57,7.57,0,0,0,203.76,293.27Z" style="fill:#ff9a6c"></path><path d="M204.8,290a15.34,15.34,0,0,0-2.56.19h.07c-1.31-.42-3.08-1-5-1.54l-1.26-.37-.09,0-.08,0a3.82,3.82,0,0,0-1.06.93,2,2,0,0,0-.46,1.26,1.45,1.45,0,0,0,.53,1.09,2.9,2.9,0,0,0,.87.5,5.7,5.7,0,0,0,1.35.36c.32,0,.5,0,.5,0s-.7-.15-1.74-.62c-.48-.24-1.16-.64-1.14-1.35a2.41,2.41,0,0,1,1.36-1.81l-.16,0,1.26.37c2,.57,3.73,1.08,5.06,1.43h.07A14.78,14.78,0,0,0,204.8,290Z" style="fill:#ff9a6c"></path><path d="M186.54,289.31s6.43-5.24,6.68-5.28,7.58,1.22,9,2.42,3,2.83,3,2.83-.32,1.89-3.16,1.16-5.75-1.7-5.75-1.7l-2.23,1.78s-1.21,6.21-7.06,6.26" style="fill:#ffbf9d"></path><path d="M187,296.78a3.5,3.5,0,0,0,.74,0,4,4,0,0,0,.87-.13,5.85,5.85,0,0,0,1.16-.34,6.89,6.89,0,0,0,2.59-2,9.67,9.67,0,0,0,1.87-3.8l-.06.1,2.24-1.76-.17,0c1.34.45,2.78.89,4.29,1.32a15.49,15.49,0,0,0,2.37.55,3.06,3.06,0,0,0,1.3-.15,1.91,1.91,0,0,0,1-.88,1.72,1.72,0,0,0,.16-.45l0-.1-.08-.07-1.66-1.55-.81-.75a6.72,6.72,0,0,0-.85-.72,9.38,9.38,0,0,0-2-.82c-.67-.2-1.33-.36-2-.52-1.29-.3-2.52-.55-3.68-.74l-.86-.13-.22,0h-.14l-.14.07-.35.25-1.23,1c-1.55,1.25-2.79,2.28-3.64,3l-1,.83a2.11,2.11,0,0,0-.32.31,1.49,1.49,0,0,0,.37-.25l1-.77,3.71-2.9,1.24-.94.32-.23h0s0,.05,0-.08c0,.11,0,.08,0,.08h.05l.2,0,.85.14c1.14.21,2.37.46,3.65.77.63.17,1.28.33,1.94.54a8.54,8.54,0,0,1,1.9.78,5.46,5.46,0,0,1,.8.69l.8.75q.83.75,1.65,1.53l0-.18a1.4,1.4,0,0,1-.13.33,1.91,1.91,0,0,1-1.95.82,15.48,15.48,0,0,1-2.29-.53c-1.51-.42-3-.85-4.29-1.29l-.09,0-.08.06L194,290.38l-.05,0v.06a9.57,9.57,0,0,1-1.75,3.7,7,7,0,0,1-2.46,1.95A10.19,10.19,0,0,1,187,296.78Z" style="fill:#ff9a6c"></path><path d="M135.12,236,143,199.31c1.65-9.2,8.38-15.91,17.53-14l.84.22A16.72,16.72,0,0,1,173.4,204.7c-1.48,8-3.21,16.75-4.39,20.92-2.45,8.63-11.47,7.64-11.47,7.64s-1.26,5.3-1.83,7.87l-1.22,6.19-4.88-3.11Z" style="fill:#ffbf9d"></path><path d="M157.54,233.26a21.72,21.72,0,0,1-10.37-6.38s1,7.24,9.8,8.79Z" style="fill:#ff9a6c"></path><path d="M168.58,211.5a1.29,1.29,0,0,1-1.53.93,1.23,1.23,0,0,1-1-1.46,1.29,1.29,0,0,1,1.53-.93A1.23,1.23,0,0,1,168.58,211.5Z" style="fill:#263238"></path><path d="M170.52,208c-.19.12-.94-.83-2.28-1.18s-2.48.05-2.58-.16.18-.34.69-.53a3.52,3.52,0,0,1,2.12-.08,3.3,3.3,0,0,1,1.76,1.15C170.56,207.65,170.62,208,170.52,208Z" style="fill:#263238"></path><path d="M156.35,208.51a1.29,1.29,0,0,1-1.53.93,1.22,1.22,0,0,1-1-1.46,1.28,1.28,0,0,1,1.53-.93A1.23,1.23,0,0,1,156.35,208.51Z" style="fill:#263238"></path><path d="M157.4,204.82c-.2.12-1-.83-2.28-1.18s-2.49,0-2.59-.16.18-.34.7-.53a3.44,3.44,0,0,1,2.12-.08,3.39,3.39,0,0,1,1.76,1.14C157.43,204.44,157.49,204.77,157.4,204.82Z" style="fill:#263238"></path><path d="M159.41,216.33a8.9,8.9,0,0,1,2.27.19c.35.06.69.08.81-.14a1.84,1.84,0,0,0,0-1.07c-.1-.9-.2-1.86-.31-2.85a46.73,46.73,0,0,1-.43-7.38c.17,0,.63,3.26,1,7.32.09,1,.17,2,.26,2.87a2.07,2.07,0,0,1-.19,1.38.87.87,0,0,1-.69.34,2.53,2.53,0,0,1-.6-.07A8.71,8.71,0,0,1,159.41,216.33Z" style="fill:#263238"></path><path d="M159,200.77c-.27.29-1.47-.41-3-.87s-2.94-.57-3-1c0-.19.32-.42,1-.55a5.5,5.5,0,0,1,4.6,1.4C158.92,200.24,159.08,200.63,159,200.77Z" style="fill:#263238"></path><path d="M171.64,204.14c-.36.23-1.36-.36-2.67-.71s-2.46-.41-2.64-.79c-.07-.18.18-.44.74-.61a4.42,4.42,0,0,1,2.3.06,4.18,4.18,0,0,1,2,1.15C171.73,203.67,171.8,204,171.64,204.14Z" style="fill:#263238"></path><path d="M141.93,205.91c-.13-.11-5.47-3.37-6.88,2.6s4.87,6.16,4.92,6S141.93,205.91,141.93,205.91Z" style="fill:#ffbf9d"></path><path d="M138.68,211.8s-.12,0-.31.09a1.06,1.06,0,0,1-.78-.17,2.62,2.62,0,0,1-.65-2.59,3.62,3.62,0,0,1,.64-1.42,1.24,1.24,0,0,1,1-.61.54.54,0,0,1,.55.43c0,.19,0,.3,0,.31s.16-.07.17-.32a.7.7,0,0,0-.15-.43.82.82,0,0,0-.54-.29,1.51,1.51,0,0,0-1.31.67,3.75,3.75,0,0,0-.75,1.58,2.78,2.78,0,0,0,.91,2.93,1.14,1.14,0,0,0,1,.07C138.64,212,138.7,211.82,138.68,211.8Z" style="fill:#ff9a6c"></path><path d="M155,216.21c.21,0-.09,1.41.87,2.64s2.46,1.41,2.43,1.61-.39.19-1,.07a3.47,3.47,0,0,1-2-1.26,3,3,0,0,1-.64-2.2C154.68,216.49,154.91,216.18,155,216.21Z" style="fill:#263238"></path><path d="M187.25,199.56a1.45,1.45,0,0,0-.47-1,4.34,4.34,0,0,0-2.14-.89A13.07,13.07,0,0,1,179.5,195a6.36,6.36,0,0,0,1.88-.74,3.84,3.84,0,0,0,2-3.47.82.82,0,0,0-.33-.68c-.36-.21-.79.09-1.13.33a3.32,3.32,0,0,1-3.34.56,5.36,5.36,0,0,1-2.11-1.21l-.06-.1q-.35-.6-.69-1.14h0a20.31,20.31,0,0,0-5.07-6A20.89,20.89,0,0,0,160,179.09c-3.22.08-6.54,1.89-7.7,4.9-1.36-1.84-3.92-2.44-6.2-2.1l0,0c-2.51.28-4.4,2.41-5.65,4.6l-.19.36a9.39,9.39,0,0,1-3.84,2.3c-.25.08-.54.18-.63.43s.08.51.25.71a4.85,4.85,0,0,0,1.68,1.22,10.52,10.52,0,0,1-1.15,1.44c-.37.38-.8.83-.68,1.35a1,1,0,0,0,.91.69,2.88,2.88,0,0,0,1.19-.24l-1.21,1.67a5.44,5.44,0,0,0,2.55.43c0,2.32-.63,6.49-.42,8.12,1.57.4,2,.32,2.74.78.95.59.12,2.32,1.59,2.12.74-.1,2.41-2.44,2.81-3.08a35.22,35.22,0,0,0,4.91-14.08,11.19,11.19,0,0,1,4-1.63l-.12.07c2.64-.27,5.59-.45,7.64,1.25,1.58,1.32,2.19,3.43,3.18,5.24a12.89,12.89,0,0,0,8.15,6.68c-.28,2.71-1.21,7.05-1.66,9.54l3.27-4.43v0a7.69,7.69,0,0,0,.65-.76l.07-.08h0c.33-.41.65-.83,1-1.23l0,0a1.58,1.58,0,0,0,2.73-1.52,3.66,3.66,0,0,0-.56-.93,2.47,2.47,0,0,0,2.17,1.15,1.94,1.94,0,0,0,1.79-1.56,1.66,1.66,0,0,0-.65-1.53,5.56,5.56,0,0,0,3.28.05C186.53,200.82,187.27,200.39,187.25,199.56Z" style="fill:#263238"></path><path d="M154.79,185.65a7.82,7.82,0,0,0-1.07.59,6.48,6.48,0,0,0-2,2.58,11,11,0,0,0-.75,2.17c-.2.8-.34,1.68-.49,2.6a23.3,23.3,0,0,1-.62,2.88,10.36,10.36,0,0,1-.55,1.46,3.26,3.26,0,0,1-1,1.32,1.33,1.33,0,0,1-1.33.12,2,2,0,0,1-1-.89,4.55,4.55,0,0,1-.31-2.42l.18.07a7.48,7.48,0,0,1-1.5,1.57,2.64,2.64,0,0,1-1.92.52,1.63,1.63,0,0,1-.86-.37,1.43,1.43,0,0,1-.47-.75,1.4,1.4,0,0,1,0-.81,1.08,1.08,0,0,1,.44-.62l.07.11a5.87,5.87,0,0,1-2.21,1,6.32,6.32,0,0,1-.64.09h-.22a.86.86,0,0,1,.22,0,5.39,5.39,0,0,0,.63-.12,6,6,0,0,0,2.15-1l.07.11a1.14,1.14,0,0,0-.37,1.28,1.34,1.34,0,0,0,.43.67,1.61,1.61,0,0,0,.78.33,2.5,2.5,0,0,0,1.79-.51,7.38,7.38,0,0,0,1.45-1.54l.19-.25v.31a4.44,4.44,0,0,0,.29,2.31,1.85,1.85,0,0,0,.86.8,1.12,1.12,0,0,0,1.13-.1,3.06,3.06,0,0,0,.9-1.24,11.36,11.36,0,0,0,.55-1.43,24.37,24.37,0,0,0,.62-2.85c.16-.92.31-1.8.51-2.61a11,11,0,0,1,.79-2.19,6.31,6.31,0,0,1,2.12-2.59A3.68,3.68,0,0,1,154.79,185.65Z" style="fill:#455a64"></path><path d="M179.78,200.58l-.08,0-.26.11a3,3,0,0,1-.43.15,5,5,0,0,1-.59.15,7.92,7.92,0,0,1-3.9-.22,10.11,10.11,0,0,1-4.81-3.2,17.54,17.54,0,0,1-3.28-6.3c-.39-1.2-.65-2.41-1-3.55a11.82,11.82,0,0,0-1.32-3.12,6.16,6.16,0,0,0-2.15-2.13,4.68,4.68,0,0,0-1.29-.47,4.57,4.57,0,0,0-1.27,0,5.1,5.1,0,0,0-2.08.66,4.94,4.94,0,0,0-1.29,1,6.21,6.21,0,0,0-.77,1.21.42.42,0,0,1,0-.09l.11-.26a4.67,4.67,0,0,1,.56-.91,5.48,5.48,0,0,1,1.3-1.09,5.11,5.11,0,0,1,2.12-.71,5.35,5.35,0,0,1,1.32,0,4.59,4.59,0,0,1,1.34.48,6.27,6.27,0,0,1,2.24,2.17,12.52,12.52,0,0,1,1.35,3.17c.34,1.15.6,2.35,1,3.55a17.5,17.5,0,0,0,3.23,6.24,10.16,10.16,0,0,0,4.7,3.18,8.07,8.07,0,0,0,3.84.28A13.08,13.08,0,0,0,179.78,200.58Z" style="fill:#455a64"></path><path d="M181.49,196.93l-.36.14a5.67,5.67,0,0,1-1,.25,9.12,9.12,0,0,1-1.59.14,11.2,11.2,0,0,1-1.93-.2,10.16,10.16,0,0,1-1.86-.58,9.59,9.59,0,0,1-1.41-.74,7.63,7.63,0,0,1-.86-.64c-.19-.17-.29-.27-.28-.28s.45.34,1.22.79a10.16,10.16,0,0,0,1.4.69,11,11,0,0,0,1.83.55,10,10,0,0,0,1.89.21,10.45,10.45,0,0,0,1.56-.08C181,197.06,181.48,196.89,181.49,196.93Z" style="fill:#455a64"></path><path d="M69.25,315.26a15.71,15.71,0,0,1-.86,3.68,43.55,43.55,0,0,1-4,5s-1.21-.27,0-3.13a23.86,23.86,0,0,1,2-4Z" style="fill:#ffbf9d"></path><path d="M63.08,322.48l6.14-7.07,2.78-10-10.59-4.59-6.78,7.91s-1.81,4.82-1.78,6,1.7,1.72,1.7,1.72c-.2,1.59,2,2.73,2,2.73,0,1.81,2.24,2,2.24,2s.29,2.13.91,2.53a1.39,1.39,0,0,0,.91.11A4,4,0,0,0,63.08,322.48Z" style="fill:#ffbf9d"></path><path d="M55.43,314.09c.11,0,0,.6-.25,1.25s-.54,1.13-.64,1.09,0-.6.25-1.24S55.32,314.05,55.43,314.09Z" style="fill:#ff9a6c"></path><path d="M57.8,315.89a6.18,6.18,0,0,1-.65,1.71c-.4.92-.68,1.69-.8,1.66a3.31,3.31,0,0,1,.42-1.82C57.18,316.49,57.71,315.82,57.8,315.89Z" style="fill:#ff9a6c"></path><path d="M60.21,318.28c.09.07-.29.68-.72,1.45s-.74,1.41-.85,1.37,0-.77.49-1.57S60.13,318.21,60.21,318.28Z" style="fill:#ff9a6c"></path><path d="M67.24,317.58a15.39,15.39,0,0,1-2.15,2.85A16.06,16.06,0,0,1,62.63,323a14.86,14.86,0,0,1,2.15-2.85A16.06,16.06,0,0,1,67.24,317.58Z" style="fill:#ff9a6c"></path><path d="M56.5,312.54s-.14.11-.38.07a1.22,1.22,0,0,1-.78-.47,1.24,1.24,0,0,1-.28-.87c0-.24.1-.36.16-.35s.09.53.44,1S56.51,312.43,56.5,312.54Z" style="fill:#ff9a6c"></path><path d="M58.8,315.18c0,.06-.16.09-.41,0a1.64,1.64,0,0,1-1.17-1.45c0-.26.06-.4.11-.4s.16.56.57,1.05S58.82,315.07,58.8,315.18Z" style="fill:#ff9a6c"></path><path d="M64.34,318.88c.06,0,0,.36-.42.5a2,2,0,0,1-1.51-.37,2.47,2.47,0,0,1-.93-1.22c-.12-.38-.08-.63,0-.64s.31.91,1.2,1.51a2.12,2.12,0,0,0,1.21.43C64.18,319.07,64.29,318.86,64.34,318.88Z" style="fill:#ff9a6c"></path><path d="M184.79,287.29l-27.85-4.16,1.57-30.61L156,244.31l-18.15,46.33,4.23,5.27a14.18,14.18,0,0,0,10.86,5.33l32.12,1Z" style="fill:#FF725E"></path><path d="M156.19,245.07l.35-5.83L154.75,241l-.22-2.7L137.9,223l-3.25,3.35-10.2,1.4c-4.48.29-4,2.51-6,6.33L107.7,260.62l-4.76,1-6.66,16c.29,1.17-6.36,12.54-7.85,16.53s3.92,7.41,3.92,7.41L131,317a4.1,4.1,0,0,0,5.24-1.31c1.78-2.24-.06-6.27-.06-6.27s13.3-30.87,16.27-39a83.07,83.07,0,0,0,3.31-15.26Z" style="fill:#FF725E"></path><path d="M135.26,233.3a11.27,11.27,0,0,0-6.51-5.08,15.74,15.74,0,0,0-13.6,2.92l-28,20.52A37.8,37.8,0,0,0,75.61,265.4l-17,34.38,13,5.76L92.38,272l34.44-18,8.34-8C135.84,244.34,137.92,238.8,135.26,233.3Z" style="fill:#FF725E"></path><path d="M121.14,257.08a5.81,5.81,0,0,1-1.08.69c-.71.41-1.75,1-3,1.68-2.58,1.4-6.17,3.26-10.16,5.29l-10.21,5.18-3.1,1.56a7,7,0,0,1-1.17.52,5.16,5.16,0,0,1,1.07-.7c.71-.41,1.74-1,3-1.7,2.57-1.41,6.16-3.3,10.14-5.32l10.23-5.16,3.12-1.53A5.73,5.73,0,0,1,121.14,257.08Z" style="fill:#263238"></path><path d="M127.72,249.71a4.22,4.22,0,0,1,.6-.93c.41-.58,1-1.41,1.68-2.48a13.53,13.53,0,0,0,1.66-4.05,11.31,11.31,0,0,0,0-5.31,10,10,0,0,0-2.33-4.72,11.29,11.29,0,0,0-3.63-2.4,10.69,10.69,0,0,0-4-.79,3,3,0,0,1,1.11-.14,8.77,8.77,0,0,1,3,.58,11.18,11.18,0,0,1,3.83,2.41,10.13,10.13,0,0,1,2.49,5,11.36,11.36,0,0,1-.06,5.53,13.35,13.35,0,0,1-1.82,4.14,26,26,0,0,1-1.83,2.4A5.1,5.1,0,0,1,127.72,249.71Z" style="fill:#263238"></path><path d="M156.64,256.6a11.46,11.46,0,0,1-.44,1.71c-.31,1.09-.78,2.66-1.39,4.6-1.22,3.86-3,9.18-5.2,15s-4.44,10.93-6.13,14.62c-.84,1.84-1.54,3.32-2,4.34a12.61,12.61,0,0,1-.82,1.56,9.65,9.65,0,0,1,.63-1.64c.49-1.12,1.12-2.61,1.9-4.41,1.6-3.73,3.77-8.88,6-14.66s4-11.06,5.34-14.9l1.55-4.54A10.44,10.44,0,0,1,156.64,256.6Z" style="fill:#263238"></path><path d="M154.53,238.33a2.78,2.78,0,0,1-.48.88,5.15,5.15,0,0,1-.8.89,4.12,4.12,0,0,1-1.35.85,2.87,2.87,0,0,1-2,.05,5.53,5.53,0,0,1-1.82-1.28l-3.51-3.45c-2.49-2.46-4.71-4.71-6.31-6.35l-1.87-2a3.58,3.58,0,0,1-.63-.77,3.87,3.87,0,0,1,.78.62l2,1.85c1.66,1.58,3.93,3.79,6.41,6.25l3.49,3.47a4.9,4.9,0,0,0,1.63,1.22,2.48,2.48,0,0,0,1.7,0,5.17,5.17,0,0,0,2.11-1.51A5.62,5.62,0,0,1,154.53,238.33Z" style="fill:#263238"></path><path d="M154,243.29a3.92,3.92,0,0,1-.11.77c-.11.54-.26,1.26-.44,2.17-.36,1.88-1,4.59-1.85,7.92a203.32,203.32,0,0,1-8.53,25.45,205.23,205.23,0,0,1-11.75,24.14c-.85,1.49-1.63,2.84-2.35,4s-1.32,2.17-1.85,3l-1.21,1.85a5,5,0,0,1-.45.63,3.6,3.6,0,0,1,.36-.68L127,310.6c.5-.81,1.08-1.83,1.77-3s1.45-2.53,2.28-4a226.75,226.75,0,0,0,11.59-24.16,222.37,222.37,0,0,0,8.65-25.35c.89-3.31,1.59-6,2-7.87.22-.89.39-1.61.52-2.15A4.9,4.9,0,0,1,154,243.29Z" style="fill:#263238"></path><path d="M156,245.1c-.13.05-.53-.66-.88-1.59s-.54-1.73-.4-1.78.53.66.88,1.59S156.15,245.05,156,245.1Z" style="fill:#263238"></path><polygon points="100.08 268.44 96.28 277.54 117.5 259.13 100.08 268.44" style="opacity:0.30000000000000004"></polygon><path d="M153.71,265.64l-11.66,30.27S154,282.28,153.71,265.64Z" style="opacity:0.30000000000000004"></path></g></svg>
